<?xml version="1.0" encoding="UTF-8" standalone="no"?>
<!-- Created with Digital by H.Neemann -->
<!-- created: Fri Oct 14 15:30:03 IST 2022 -->

<svg
   xmlns:svg="http://www.w3.org/2000/svg"
   xmlns="http://www.w3.org/2000/svg"
   width="509.1mm"
   height="269.85mm"
   viewBox="-862 -642 3394 1799">
<g stroke-linecap="square">
<path d="M 480,0 L 660,0 L 660,-80" stroke="#0000b2" stroke-width="4.0" fill="none"/>
<path d="M -420,0 L -340,0" stroke="#0000b2" stroke-width="4.0" fill="none"/>
<path d="M -780,-140 L -780,0 L -460,0" stroke="#0000b2" stroke-width="4.0" fill="none"/>
<path d="M -640,960 L -500,960" stroke="#0000b2" stroke-width="4.0" fill="none"/>
<path d="M -460,960 L -440,960" stroke="#0000b2" stroke-width="4.0" fill="none"/>
<path d="M -480,-260 L -340,-260" stroke="#0000b2" stroke-width="4.0" fill="none"/>
<path d="M 660,520 L 660,580 L 820,580" stroke="#0000b2" stroke-width="4.0" fill="none"/>
<path d="M 580,520 L 660,520 L 660,440 L 860,440" stroke="#0000b2" stroke-width="4.0" fill="none"/>
<path d="M 1280,520 L 1380,520" stroke="#0000b2" stroke-width="4.0" fill="none"/>
<path d="M 1060,520 L 1140,520" stroke="#0000b2" stroke-width="4.0" fill="none"/>
<path d="M -580,520 L -520,520 L -520,460 L -480,460" stroke="#0000b2" stroke-width="4.0" fill="none"/>
<path d="M -340,580 L -340,520 L -180,520" stroke="#0000b2" stroke-width="4.0" fill="none"/>
<path d="M 180,520 L 200,520" stroke="#0000b2" stroke-width="4.0" fill="none"/>
<path d="M -240,-240 L -240,-140 L 20,-140" stroke="#0000b2" stroke-width="4.0" fill="none"/>
<path d="M -800,-140 L -780,-140 L -780,-280 L -640,-280" stroke="#0000b2" stroke-width="4.0" fill="none"/>
<path d="M 540,1040 L 540,1100 L 980,1100" stroke="#0000b2" stroke-width="4.0" fill="none"/>
<path d="M 1200,1100 L 1300,1100" stroke="#0000b2" stroke-width="4.0" fill="none"/>
<path d="M 1880,1080 L 1880,1100 L 1920,1100" stroke="#0000b2" stroke-width="4.0" fill="none"/>
<path d="M 960,460 L 1120,460 L 1120,500 L 1180,500" stroke="#0000b2" stroke-width="4.0" fill="none"/>
<path d="M 520,1040 L 540,1040 L 740,1040" stroke="#0000b2" stroke-width="4.0" fill="none"/>
<path d="M -340,1040 L -240,1040 L -240,1000 L -220,1000" stroke="#0000b2" stroke-width="4.0" fill="none"/>
<path d="M 2220,1040 L 2260,1040" stroke="#0000b2" stroke-width="4.0" fill="none"/>
<path d="M 2300,1040 L 2340,1040" stroke="#0000b2" stroke-width="4.0" fill="none"/>
<path d="M 1000,80 L 1020,80 L 1020,-80 L 1440,-80" stroke="#0000b2" stroke-width="4.0" fill="none"/>
<path d="M -300,980 L -280,980" stroke="#0000b2" stroke-width="4.0" fill="none"/>
<path d="M -240,980 L -220,980" stroke="#0000b2" stroke-width="4.0" fill="none"/>
<path d="M -120,980 L -100,980" stroke="#0000b2" stroke-width="4.0" fill="none"/>
<path d="M -600,-280 L -580,-280" stroke="#0000b2" stroke-width="4.0" fill="none"/>
<path d="M -520,520 L -520,600 L -440,600" stroke="#0000b2" stroke-width="4.0" fill="none"/>
<path d="M 960,600 L 1120,600 L 1120,540 L 1180,540" stroke="#0000b2" stroke-width="4.0" fill="none"/>
<path d="M -580,920 L -560,920 L -440,920" stroke="#0000b2" stroke-width="4.0" fill="none"/>
<path d="M 60,540 L 80,540" stroke="#0000b2" stroke-width="4.0" fill="none"/>
<path d="M -100,560 L -100,540 L 20,540" stroke="#0000b2" stroke-width="4.0" fill="none"/>
<path d="M 720,540 L 780,540 L 780,480 L 820,480" stroke="#0000b2" stroke-width="4.0" fill="none"/>
<path d="M -340,440 L -340,480 L -180,480" stroke="#0000b2" stroke-width="4.0" fill="none"/>
<path d="M 1400,1120 L 1480,1120" stroke="#0000b2" stroke-width="4.0" fill="none"/>
<path d="M 980,-100 L 1440,-100" stroke="#0000b2" stroke-width="4.0" fill="none"/>
<path d="M 1540,-100 L 1580,-100" stroke="#0000b2" stroke-width="4.0" fill="none"/>
<path d="M -240,-20 L -240,-100 L 20,-100" stroke="#0000b2" stroke-width="4.0" fill="none"/>
<path d="M 660,0 L 660,100 L 900,100" stroke="#0000b2" stroke-width="4.0" fill="none"/>
<path d="M -640,1060 L -440,1060" stroke="#0000b2" stroke-width="4.0" fill="none"/>
<path d="M 2020,1120 L 2020,1060 L 2120,1060" stroke="#0000b2" stroke-width="4.0" fill="none"/>
<path d="M 2440,1060 L 2480,1060" stroke="#0000b2" stroke-width="4.0" fill="none"/>
<path d="M 840,1060 L 980,1060" stroke="#0000b2" stroke-width="4.0" fill="none"/>
<path d="M -420,-40 L -340,-40" stroke="#0000b2" stroke-width="4.0" fill="none"/>
<path d="M -500,-120 L -500,-40 L -460,-40" stroke="#0000b2" stroke-width="4.0" fill="none"/>
<path d="M 1860,1000 L 1900,1000" stroke="#0000b2" stroke-width="4.0" fill="none"/>
<path d="M 780,540 L 780,620 L 860,620" stroke="#0000b2" stroke-width="4.0" fill="none"/>
<path d="M -340,940 L -240,940 L -240,960 L -220,960" stroke="#0000b2" stroke-width="4.0" fill="none"/>
<path d="M 500,-240 L 620,-240 L 620,-280 L 920,-280" stroke="#0000b2" stroke-width="4.0" fill="none"/>
<path d="M -680,-240 L -580,-240" stroke="#0000b2" stroke-width="4.0" fill="none"/>
<path d="M -640,500 L -640,560 L -480,560" stroke="#0000b2" stroke-width="4.0" fill="none"/>
<path d="M 1000,1140 L 1060,1140 L 1060,1120 L 1100,1120" stroke="#0000b2" stroke-width="4.0" fill="none"/>
<path d="M 1240,1140 L 1260,1140" stroke="#0000b2" stroke-width="4.0" fill="none"/>
<path d="M 1860,1140 L 1920,1140" stroke="#0000b2" stroke-width="4.0" fill="none"/>
<path d="M -720,500 L -640,500 L -640,420 L -440,420" stroke="#0000b2" stroke-width="4.0" fill="none"/>
<path d="M 60,500 L 80,500" stroke="#0000b2" stroke-width="4.0" fill="none"/>
<path d="M -80,500 L 20,500" stroke="#0000b2" stroke-width="4.0" fill="none"/>
<path d="M 1020,-260 L 1020,-120 L 1440,-120" stroke="#0000b2" stroke-width="4.0" fill="none"/>
<path d="M 620,-240 L 620,-120 L 840,-120" stroke="#0000b2" stroke-width="4.0" fill="none"/>
<path d="M -520,-120 L -500,-120 L -500,-220 L -340,-220" stroke="#0000b2" stroke-width="4.0" fill="none"/>
<path d="M 120,-120 L 140,-120" stroke="#0000b2" stroke-width="4.0" fill="none"/>
<path d="M 680,1080 L 740,1080" stroke="#0000b2" stroke-width="4.0" fill="none"/>
<path d="M 1080,1080 L 1100,1080" stroke="#0000b2" stroke-width="4.0" fill="none"/>
<path d="M 1840,1080 L 1880,1080 L 1880,1040 L 1940,1040" stroke="#0000b2" stroke-width="4.0" fill="none"/>
<path d="M 2260,1080 L 2280,1080" stroke="#0000b2" stroke-width="4.0" fill="none"/>
<path d="M 2320,1080 L 2340,1080" stroke="#0000b2" stroke-width="4.0" fill="none"/>
<path d="M 880,60 L 900,60" stroke="#0000b2" stroke-width="4.0" fill="none"/>
<path d="M 800,60 L 840,60" stroke="#0000b2" stroke-width="4.0" fill="none"/>
<path d="M -560,920 L -560,1020 L -440,1020" stroke="#0000b2" stroke-width="4.0" fill="none"/>
<path d="M 2040,1020 L 2120,1020" stroke="#0000b2" stroke-width="4.0" fill="none"/>
<path d="M 840,-80 L 660,-80 L 660,-240 L 920,-240" stroke="#0000b2" stroke-width="4.0" fill="none"/>
<g>
<circle cx="660.0" cy="0.0" r="4.0" stroke="#0000b2" stroke-width="4.0" fill="#0000b2" />
<circle cx="660.0" cy="520.0" r="4.0" stroke="#0000b2" stroke-width="4.0" fill="#0000b2" />
<circle cx="-520.0" cy="520.0" r="4.0" stroke="#0000b2" stroke-width="4.0" fill="#0000b2" />
<circle cx="-780.0" cy="-140.0" r="4.0" stroke="#0000b2" stroke-width="4.0" fill="#0000b2" />
<circle cx="660.0" cy="-80.0" r="4.0" stroke="#0000b2" stroke-width="4.0" fill="#0000b2" />
<circle cx="540.0" cy="1040.0" r="4.0" stroke="#0000b2" stroke-width="4.0" fill="#0000b2" />
<circle cx="-560.0" cy="920.0" r="4.0" stroke="#0000b2" stroke-width="4.0" fill="#0000b2" />
<circle cx="780.0" cy="540.0" r="4.0" stroke="#0000b2" stroke-width="4.0" fill="#0000b2" />
<circle cx="620.0" cy="-240.0" r="4.0" stroke="#0000b2" stroke-width="4.0" fill="#0000b2" />
<circle cx="-640.0" cy="500.0" r="4.0" stroke="#0000b2" stroke-width="4.0" fill="#0000b2" />
<circle cx="-500.0" cy="-120.0" r="4.0" stroke="#0000b2" stroke-width="4.0" fill="#0000b2" />
<circle cx="1880.0" cy="1080.0" r="4.0" stroke="#0000b2" stroke-width="4.0" fill="#0000b2" />
</g>
<g>
<path d="M 841,-132 L 859,-120 L 841,-108 Z" stroke="#000000" stroke-width="4.0" fill="none"/>
<circle cx="870.0" cy="-120.0" r="9.0" stroke="#000000" stroke-width="4.0" fill="none" />
<circle cx="840.0" cy="-120.0" r="2.0" stroke="#0000b2" stroke-width="4.0" fill="#0000b2" />
<circle cx="880.0" cy="-120.0" r="2.0" stroke="#b20000" stroke-width="4.0" fill="#b20000" />
</g>
<g>
<path d="M 841,-92 L 859,-80 L 841,-68 Z" stroke="#000000" stroke-width="4.0" fill="none"/>
<circle cx="870.0" cy="-80.0" r="9.0" stroke="#000000" stroke-width="4.0" fill="none" />
<circle cx="840.0" cy="-80.0" r="2.0" stroke="#0000b2" stroke-width="4.0" fill="#0000b2" />
<circle cx="880.0" cy="-80.0" r="2.0" stroke="#b20000" stroke-width="4.0" fill="#b20000" />
</g>
<g>
<path d="M 841,48 L 859,60 L 841,72 Z" stroke="#000000" stroke-width="4.0" fill="none"/>
<circle cx="870.0" cy="60.0" r="9.0" stroke="#000000" stroke-width="4.0" fill="none" />
<circle cx="840.0" cy="60.0" r="2.0" stroke="#0000b2" stroke-width="4.0" fill="#0000b2" />
<circle cx="880.0" cy="60.0" r="2.0" stroke="#b20000" stroke-width="4.0" fill="#b20000" />
</g>
<g>
<path d="M 469,-255 L 499,-255 L 499,-225 L 469,-225 Z" stroke="#000000" stroke-width="4.0" fill="none"/>
<circle cx="484.0" cy="-240.0" r="9.0" stroke="#000000" stroke-width="4.0" fill="none" />
<text text-anchor="end" x="455.0" y="-231.0" fill="#000000" style="font-size:24px"><tspan style="font-style:italic;">z</tspan></text>
<circle cx="500.0" cy="-240.0" r="2.0" stroke="#b20000" stroke-width="4.0" fill="#b20000" />
</g>
<g>
<path d="M 769,45 L 799,45 L 799,75 L 769,75 Z" stroke="#000000" stroke-width="4.0" fill="none"/>
<circle cx="784.0" cy="60.0" r="9.0" stroke="#000000" stroke-width="4.0" fill="none" />
<text text-anchor="end" x="755.0" y="69.0" fill="#000000" style="font-size:24px"><tspan style="font-style:italic;">w</tspan></text>
<circle cx="800.0" cy="60.0" r="2.0" stroke="#b20000" stroke-width="4.0" fill="#b20000" />
</g>
<g>
<path d="M 449,-15 L 479,-15 L 479,15 L 449,15 Z" stroke="#000000" stroke-width="4.0" fill="none"/>
<circle cx="464.0" cy="0.0" r="9.0" stroke="#000000" stroke-width="4.0" fill="none" />
<text text-anchor="end" x="435.0" y="9.0" fill="#000000" style="font-size:24px"><tspan style="font-style:italic;">x</tspan></text>
<circle cx="480.0" cy="0.0" r="2.0" stroke="#b20000" stroke-width="4.0" fill="#b20000" />
</g>
<g>
<circle cx="1596.0" cy="-100.0" r="9.0" stroke="#000000" stroke-width="4.0" fill="none" />
<circle cx="1596.0" cy="-100.0" r="15.0" stroke="#000000" stroke-width="4.0" fill="none" />
<text text-anchor="start" x="1625.0" y="-91.0" fill="#000000" style="font-size:24px"><tspan style="font-style:italic;">b</tspan></text>
<circle cx="1580.0" cy="-100.0" r="2.0" stroke="#0000b2" stroke-width="4.0" fill="#0000b2" />
</g>
<g>
<path d="M 970,-230 L 921,-230 L 921,-290 L 970,-290 C 980,-290 1000,-280 999,-260 C 999,-240 980,-230 970,-230 Z" stroke="#000000" stroke-width="4.0" fill="none"/>
<circle cx="1010.0" cy="-260.0" r="9.0" stroke="#000000" stroke-width="4.0" fill="none" />
<circle cx="920.0" cy="-280.0" r="2.0" stroke="#0000b2" stroke-width="4.0" fill="#0000b2" />
<circle cx="920.0" cy="-240.0" r="2.0" stroke="#0000b2" stroke-width="4.0" fill="#0000b2" />
<circle cx="1020.0" cy="-260.0" r="2.0" stroke="#b20000" stroke-width="4.0" fill="#b20000" />
</g>
<g>
<path d="M 930,-70 L 881,-70 L 881,-130 L 930,-130 C 940,-130 960,-120 959,-100 C 959,-80 940,-70 930,-70 Z" stroke="#000000" stroke-width="4.0" fill="none"/>
<circle cx="970.0" cy="-100.0" r="9.0" stroke="#000000" stroke-width="4.0" fill="none" />
<circle cx="880.0" cy="-120.0" r="2.0" stroke="#0000b2" stroke-width="4.0" fill="#0000b2" />
<circle cx="880.0" cy="-80.0" r="2.0" stroke="#0000b2" stroke-width="4.0" fill="#0000b2" />
<circle cx="980.0" cy="-100.0" r="2.0" stroke="#b20000" stroke-width="4.0" fill="#b20000" />
</g>
<g>
<path d="M 950,110 L 901,110 L 901,50 L 950,50 C 960,50 980,60 979,80 C 979,100 960,110 950,110 Z" stroke="#000000" stroke-width="4.0" fill="none"/>
<circle cx="990.0" cy="80.0" r="9.0" stroke="#000000" stroke-width="4.0" fill="none" />
<circle cx="900.0" cy="60.0" r="2.0" stroke="#0000b2" stroke-width="4.0" fill="#0000b2" />
<circle cx="900.0" cy="100.0" r="2.0" stroke="#0000b2" stroke-width="4.0" fill="#0000b2" />
<circle cx="1000.0" cy="80.0" r="2.0" stroke="#b20000" stroke-width="4.0" fill="#b20000" />
</g>
<g>
<path d="M 1490,-70 L 1441,-70 L 1441,-130 L 1490,-130 C 1500,-130 1520,-120 1519,-100 C 1519,-80 1500,-70 1490,-70 Z" stroke="#000000" stroke-width="4.0" fill="none"/>
<circle cx="1530.0" cy="-100.0" r="9.0" stroke="#000000" stroke-width="4.0" fill="none" />
<circle cx="1440.0" cy="-120.0" r="2.0" stroke="#0000b2" stroke-width="4.0" fill="#0000b2" />
<circle cx="1440.0" cy="-100.0" r="2.0" stroke="#0000b2" stroke-width="4.0" fill="#0000b2" />
<circle cx="1440.0" cy="-80.0" r="2.0" stroke="#0000b2" stroke-width="4.0" fill="#0000b2" />
<circle cx="1540.0" cy="-100.0" r="2.0" stroke="#b20000" stroke-width="4.0" fill="#b20000" />
</g>
<g>
<path d="M -459,-52 L -441,-40 L -459,-28 Z" stroke="#000000" stroke-width="4.0" fill="none"/>
<circle cx="-430.0" cy="-40.0" r="9.0" stroke="#000000" stroke-width="4.0" fill="none" />
<circle cx="-460.0" cy="-40.0" r="2.0" stroke="#0000b2" stroke-width="4.0" fill="#0000b2" />
<circle cx="-420.0" cy="-40.0" r="2.0" stroke="#b20000" stroke-width="4.0" fill="#b20000" />
</g>
<g>
<path d="M -459,-12 L -441,0 L -459,12 Z" stroke="#000000" stroke-width="4.0" fill="none"/>
<circle cx="-430.0" cy="0.0" r="9.0" stroke="#000000" stroke-width="4.0" fill="none" />
<circle cx="-460.0" cy="0.0" r="2.0" stroke="#0000b2" stroke-width="4.0" fill="#0000b2" />
<circle cx="-420.0" cy="0.0" r="2.0" stroke="#b20000" stroke-width="4.0" fill="#b20000" />
</g>
<g>
<circle cx="156.0" cy="-120.0" r="9.0" stroke="#000000" stroke-width="4.0" fill="none" />
<circle cx="156.0" cy="-120.0" r="15.0" stroke="#000000" stroke-width="4.0" fill="none" />
<text text-anchor="start" x="185.0" y="-111.0" fill="#000000" style="font-size:24px"><tspan style="font-style:italic;">b</tspan></text>
<circle cx="140.0" cy="-120.0" r="2.0" stroke="#0000b2" stroke-width="4.0" fill="#0000b2" />
</g>
<g>
<path d="M -551,-135 L -521,-135 L -521,-105 L -551,-105 Z" stroke="#000000" stroke-width="4.0" fill="none"/>
<circle cx="-536.0" cy="-120.0" r="9.0" stroke="#000000" stroke-width="4.0" fill="none" />
<text text-anchor="end" x="-565.0" y="-111.0" fill="#000000" style="font-size:24px"><tspan style="font-style:italic;">x</tspan></text>
<circle cx="-520.0" cy="-120.0" r="2.0" stroke="#b20000" stroke-width="4.0" fill="#b20000" />
</g>
<g>
<path d="M -711,-255 L -681,-255 L -681,-225 L -711,-225 Z" stroke="#000000" stroke-width="4.0" fill="none"/>
<circle cx="-696.0" cy="-240.0" r="9.0" stroke="#000000" stroke-width="4.0" fill="none" />
<text text-anchor="end" x="-725.0" y="-231.0" fill="#000000" style="font-size:24px"><tspan style="font-style:italic;">w</tspan></text>
<circle cx="-680.0" cy="-240.0" r="2.0" stroke="#b20000" stroke-width="4.0" fill="#b20000" />
</g>
<g>
<path d="M -831,-155 L -801,-155 L -801,-125 L -831,-125 Z" stroke="#000000" stroke-width="4.0" fill="none"/>
<circle cx="-816.0" cy="-140.0" r="9.0" stroke="#000000" stroke-width="4.0" fill="none" />
<text text-anchor="end" x="-845.0" y="-131.0" fill="#000000" style="font-size:24px"><tspan style="font-style:italic;">z</tspan></text>
<circle cx="-800.0" cy="-140.0" r="2.0" stroke="#b20000" stroke-width="4.0" fill="#b20000" />
</g>
<g>
<path d="M -290,-210 L -339,-210 L -339,-270 L -290,-270 C -280,-270 -260,-260 -261,-240 C -261,-220 -280,-210 -290,-210 Z" stroke="#000000" stroke-width="4.0" fill="none"/>
<circle cx="-250.0" cy="-240.0" r="9.0" stroke="#000000" stroke-width="4.0" fill="none" />
<circle cx="-340.0" cy="-260.0" r="2.0" stroke="#0000b2" stroke-width="4.0" fill="#0000b2" />
<circle cx="-340.0" cy="-220.0" r="2.0" stroke="#0000b2" stroke-width="4.0" fill="#0000b2" />
<circle cx="-240.0" cy="-240.0" r="2.0" stroke="#b20000" stroke-width="4.0" fill="#b20000" />
</g>
<g>
<path d="M -290,10 L -339,10 L -339,-50 L -290,-50 C -280,-50 -260,-40 -261,-20 C -261,0 -280,10 -290,10 Z" stroke="#000000" stroke-width="4.0" fill="none"/>
<circle cx="-250.0" cy="-20.0" r="9.0" stroke="#000000" stroke-width="4.0" fill="none" />
<circle cx="-340.0" cy="-40.0" r="2.0" stroke="#0000b2" stroke-width="4.0" fill="#0000b2" />
<circle cx="-340.0" cy="0.0" r="2.0" stroke="#0000b2" stroke-width="4.0" fill="#0000b2" />
<circle cx="-240.0" cy="-20.0" r="2.0" stroke="#b20000" stroke-width="4.0" fill="#b20000" />
</g>
<g>
<path d="M 70,-90 L 21,-90 L 21,-150 L 70,-150 C 80,-150 100,-140 99,-120 C 99,-100 80,-90 70,-90 Z" stroke="#000000" stroke-width="4.0" fill="none"/>
<circle cx="110.0" cy="-120.0" r="9.0" stroke="#000000" stroke-width="4.0" fill="none" />
<circle cx="20.0" cy="-140.0" r="2.0" stroke="#0000b2" stroke-width="4.0" fill="#0000b2" />
<circle cx="20.0" cy="-100.0" r="2.0" stroke="#0000b2" stroke-width="4.0" fill="#0000b2" />
<circle cx="120.0" cy="-120.0" r="2.0" stroke="#b20000" stroke-width="4.0" fill="#b20000" />
</g>
<g>
<path d="M -639,-292 L -621,-280 L -639,-268 Z" stroke="#000000" stroke-width="4.0" fill="none"/>
<circle cx="-610.0" cy="-280.0" r="9.0" stroke="#000000" stroke-width="4.0" fill="none" />
<circle cx="-640.0" cy="-280.0" r="2.0" stroke="#0000b2" stroke-width="4.0" fill="#0000b2" />
<circle cx="-600.0" cy="-280.0" r="2.0" stroke="#b20000" stroke-width="4.0" fill="#b20000" />
</g>
<g>
<path d="M -530,-230 L -579,-230 L -579,-290 L -530,-290 C -520,-290 -500,-280 -501,-260 C -501,-240 -520,-230 -530,-230 Z" stroke="#000000" stroke-width="4.0" fill="none"/>
<circle cx="-490.0" cy="-260.0" r="9.0" stroke="#000000" stroke-width="4.0" fill="none" />
<circle cx="-580.0" cy="-280.0" r="2.0" stroke="#0000b2" stroke-width="4.0" fill="#0000b2" />
<circle cx="-580.0" cy="-240.0" r="2.0" stroke="#0000b2" stroke-width="4.0" fill="#0000b2" />
<circle cx="-480.0" cy="-260.0" r="2.0" stroke="#b20000" stroke-width="4.0" fill="#b20000" />
</g>
<g>
<text text-anchor="start" x="680.0" y="-415.0" fill="#000000" style="font-size:60px">xz+x'z'+w'x</text>
<text text-anchor="start" x="680.0" y="-340.0" fill="#000000" style="font-size:60px">9 inputs</text>
</g>
<g>
<text text-anchor="start" x="-760.0" y="-415.0" fill="#000000" style="font-size:60px">x(z+w')+x'z'</text>
<text text-anchor="start" x="-760.0" y="-340.0" fill="#000000" style="font-size:60px">8 inputs</text>
</g>
<g>
<text text-anchor="start" x="-860.0" y="-595.0" fill="#000000" style="font-size:60px">Q2 F1(SOP) using NAND gates</text>
</g>
<g>
<text text-anchor="start" x="-800.0" y="245.0" fill="#000000" style="font-size:60px">Q2 F3 using NAND gates</text>
<text text-anchor="start" x="-800.0" y="320.0" fill="#000000" style="font-size:60px">a+b'c+bc'(SoP)</text>
</g>
<g>
<path d="M -131,545 L -101,545 L -101,575 L -131,575 Z" stroke="#000000" stroke-width="4.0" fill="none"/>
<circle cx="-116.0" cy="560.0" r="9.0" stroke="#000000" stroke-width="4.0" fill="none" />
<text text-anchor="end" x="-145.0" y="569.0" fill="#000000" style="font-size:24px"><tspan style="font-style:italic;">a</tspan></text>
<circle cx="-100.0" cy="560.0" r="2.0" stroke="#b20000" stroke-width="4.0" fill="#b20000" />
</g>
<g>
<path d="M -479,548 L -461,560 L -479,572 Z" stroke="#000000" stroke-width="4.0" fill="none"/>
<circle cx="-450.0" cy="560.0" r="9.0" stroke="#000000" stroke-width="4.0" fill="none" />
<circle cx="-480.0" cy="560.0" r="2.0" stroke="#0000b2" stroke-width="4.0" fill="#0000b2" />
<circle cx="-440.0" cy="560.0" r="2.0" stroke="#b20000" stroke-width="4.0" fill="#b20000" />
</g>
<g>
<path d="M -751,485 L -721,485 L -721,515 L -751,515 Z" stroke="#000000" stroke-width="4.0" fill="none"/>
<circle cx="-736.0" cy="500.0" r="9.0" stroke="#000000" stroke-width="4.0" fill="none" />
<text text-anchor="end" x="-765.0" y="509.0" fill="#000000" style="font-size:24px"><tspan style="font-style:italic;">b</tspan></text>
<circle cx="-720.0" cy="500.0" r="2.0" stroke="#b20000" stroke-width="4.0" fill="#b20000" />
</g>
<g>
<path d="M -479,448 L -461,460 L -479,472 Z" stroke="#000000" stroke-width="4.0" fill="none"/>
<circle cx="-450.0" cy="460.0" r="9.0" stroke="#000000" stroke-width="4.0" fill="none" />
<circle cx="-480.0" cy="460.0" r="2.0" stroke="#0000b2" stroke-width="4.0" fill="#0000b2" />
<circle cx="-440.0" cy="460.0" r="2.0" stroke="#b20000" stroke-width="4.0" fill="#b20000" />
</g>
<g>
<path d="M -611,505 L -581,505 L -581,535 L -611,535 Z" stroke="#000000" stroke-width="4.0" fill="none"/>
<circle cx="-596.0" cy="520.0" r="9.0" stroke="#000000" stroke-width="4.0" fill="none" />
<text text-anchor="end" x="-625.0" y="529.0" fill="#000000" style="font-size:24px"><tspan style="font-style:italic;">c</tspan></text>
<circle cx="-580.0" cy="520.0" r="2.0" stroke="#b20000" stroke-width="4.0" fill="#b20000" />
</g>
<g>
<circle cx="216.0" cy="520.0" r="9.0" stroke="#000000" stroke-width="4.0" fill="none" />
<circle cx="216.0" cy="520.0" r="15.0" stroke="#000000" stroke-width="4.0" fill="none" />
<text text-anchor="start" x="245.0" y="529.0" fill="#000000" style="font-size:24px"><tspan style="font-style:italic;">y1</tspan></text>
<circle cx="200.0" cy="520.0" r="2.0" stroke="#0000b2" stroke-width="4.0" fill="#0000b2" />
</g>
<g>
<path d="M -390,470 L -439,470 L -439,410 L -390,410 C -380,410 -360,420 -361,440 C -361,460 -380,470 -390,470 Z" stroke="#000000" stroke-width="4.0" fill="none"/>
<circle cx="-350.0" cy="440.0" r="9.0" stroke="#000000" stroke-width="4.0" fill="none" />
<circle cx="-440.0" cy="420.0" r="2.0" stroke="#0000b2" stroke-width="4.0" fill="#0000b2" />
<circle cx="-440.0" cy="460.0" r="2.0" stroke="#0000b2" stroke-width="4.0" fill="#0000b2" />
<circle cx="-340.0" cy="440.0" r="2.0" stroke="#b20000" stroke-width="4.0" fill="#b20000" />
</g>
<g>
<path d="M -390,610 L -439,610 L -439,550 L -390,550 C -380,550 -360,560 -361,580 C -361,600 -380,610 -390,610 Z" stroke="#000000" stroke-width="4.0" fill="none"/>
<circle cx="-350.0" cy="580.0" r="9.0" stroke="#000000" stroke-width="4.0" fill="none" />
<circle cx="-440.0" cy="560.0" r="2.0" stroke="#0000b2" stroke-width="4.0" fill="#0000b2" />
<circle cx="-440.0" cy="600.0" r="2.0" stroke="#0000b2" stroke-width="4.0" fill="#0000b2" />
<circle cx="-340.0" cy="580.0" r="2.0" stroke="#b20000" stroke-width="4.0" fill="#b20000" />
</g>
<g>
<path d="M -130,530 L -179,530 L -179,470 L -130,470 C -120,470 -100,480 -101,500 C -101,520 -120,530 -130,530 Z" stroke="#000000" stroke-width="4.0" fill="none"/>
<circle cx="-90.0" cy="500.0" r="9.0" stroke="#000000" stroke-width="4.0" fill="none" />
<circle cx="-180.0" cy="480.0" r="2.0" stroke="#0000b2" stroke-width="4.0" fill="#0000b2" />
<circle cx="-180.0" cy="520.0" r="2.0" stroke="#0000b2" stroke-width="4.0" fill="#0000b2" />
<circle cx="-80.0" cy="500.0" r="2.0" stroke="#b20000" stroke-width="4.0" fill="#b20000" />
</g>
<g>
<path d="M 21,488 L 39,500 L 21,512 Z" stroke="#000000" stroke-width="4.0" fill="none"/>
<circle cx="50.0" cy="500.0" r="9.0" stroke="#000000" stroke-width="4.0" fill="none" />
<circle cx="20.0" cy="500.0" r="2.0" stroke="#0000b2" stroke-width="4.0" fill="#0000b2" />
<circle cx="60.0" cy="500.0" r="2.0" stroke="#b20000" stroke-width="4.0" fill="#b20000" />
</g>
<g>
<path d="M 21,528 L 39,540 L 21,552 Z" stroke="#000000" stroke-width="4.0" fill="none"/>
<circle cx="50.0" cy="540.0" r="9.0" stroke="#000000" stroke-width="4.0" fill="none" />
<circle cx="20.0" cy="540.0" r="2.0" stroke="#0000b2" stroke-width="4.0" fill="#0000b2" />
<circle cx="60.0" cy="540.0" r="2.0" stroke="#b20000" stroke-width="4.0" fill="#b20000" />
</g>
<g>
<path d="M 130,550 L 81,550 L 81,490 L 130,490 C 140,490 160,500 159,520 C 159,540 140,550 130,550 Z" stroke="#000000" stroke-width="4.0" fill="none"/>
<circle cx="170.0" cy="520.0" r="9.0" stroke="#000000" stroke-width="4.0" fill="none" />
<circle cx="80.0" cy="500.0" r="2.0" stroke="#0000b2" stroke-width="4.0" fill="#0000b2" />
<circle cx="80.0" cy="540.0" r="2.0" stroke="#0000b2" stroke-width="4.0" fill="#0000b2" />
<circle cx="180.0" cy="520.0" r="2.0" stroke="#b20000" stroke-width="4.0" fill="#b20000" />
</g>
<g>
<path d="M 1029,505 L 1059,505 L 1059,535 L 1029,535 Z" stroke="#000000" stroke-width="4.0" fill="none"/>
<circle cx="1044.0" cy="520.0" r="9.0" stroke="#000000" stroke-width="4.0" fill="none" />
<text text-anchor="end" x="1015.0" y="529.0" fill="#000000" style="font-size:24px"><tspan style="font-style:italic;">a</tspan></text>
<circle cx="1060.0" cy="520.0" r="2.0" stroke="#b20000" stroke-width="4.0" fill="#b20000" />
</g>
<g>
<path d="M 821,568 L 839,580 L 821,592 Z" stroke="#000000" stroke-width="4.0" fill="none"/>
<circle cx="850.0" cy="580.0" r="9.0" stroke="#000000" stroke-width="4.0" fill="none" />
<circle cx="820.0" cy="580.0" r="2.0" stroke="#0000b2" stroke-width="4.0" fill="#0000b2" />
<circle cx="860.0" cy="580.0" r="2.0" stroke="#b20000" stroke-width="4.0" fill="#b20000" />
</g>
<g>
<path d="M 549,505 L 579,505 L 579,535 L 549,535 Z" stroke="#000000" stroke-width="4.0" fill="none"/>
<circle cx="564.0" cy="520.0" r="9.0" stroke="#000000" stroke-width="4.0" fill="none" />
<text text-anchor="end" x="535.0" y="529.0" fill="#000000" style="font-size:24px"><tspan style="font-style:italic;">b</tspan></text>
<circle cx="580.0" cy="520.0" r="2.0" stroke="#b20000" stroke-width="4.0" fill="#b20000" />
</g>
<g>
<path d="M 821,468 L 839,480 L 821,492 Z" stroke="#000000" stroke-width="4.0" fill="none"/>
<circle cx="850.0" cy="480.0" r="9.0" stroke="#000000" stroke-width="4.0" fill="none" />
<circle cx="820.0" cy="480.0" r="2.0" stroke="#0000b2" stroke-width="4.0" fill="#0000b2" />
<circle cx="860.0" cy="480.0" r="2.0" stroke="#b20000" stroke-width="4.0" fill="#b20000" />
</g>
<g>
<path d="M 689,525 L 719,525 L 719,555 L 689,555 Z" stroke="#000000" stroke-width="4.0" fill="none"/>
<circle cx="704.0" cy="540.0" r="9.0" stroke="#000000" stroke-width="4.0" fill="none" />
<text text-anchor="end" x="675.0" y="549.0" fill="#000000" style="font-size:24px"><tspan style="font-style:italic;">c</tspan></text>
<circle cx="720.0" cy="540.0" r="2.0" stroke="#b20000" stroke-width="4.0" fill="#b20000" />
</g>
<g>
<circle cx="1396.0" cy="520.0" r="9.0" stroke="#000000" stroke-width="4.0" fill="none" />
<circle cx="1396.0" cy="520.0" r="15.0" stroke="#000000" stroke-width="4.0" fill="none" />
<text text-anchor="start" x="1425.0" y="529.0" fill="#000000" style="font-size:24px"><tspan style="font-style:italic;">y</tspan></text>
<circle cx="1380.0" cy="520.0" r="2.0" stroke="#0000b2" stroke-width="4.0" fill="#0000b2" />
</g>
<g>
<path d="M 910,490 L 861,490 L 861,430 L 910,430 C 920,430 940,440 939,460 C 939,480 920,490 910,490 Z" stroke="#000000" stroke-width="4.0" fill="none"/>
<circle cx="950.0" cy="460.0" r="9.0" stroke="#000000" stroke-width="4.0" fill="none" />
<circle cx="860.0" cy="440.0" r="2.0" stroke="#0000b2" stroke-width="4.0" fill="#0000b2" />
<circle cx="860.0" cy="480.0" r="2.0" stroke="#0000b2" stroke-width="4.0" fill="#0000b2" />
<circle cx="960.0" cy="460.0" r="2.0" stroke="#b20000" stroke-width="4.0" fill="#b20000" />
</g>
<g>
<path d="M 910,630 L 861,630 L 861,570 L 910,570 C 920,570 940,580 939,600 C 939,620 920,630 910,630 Z" stroke="#000000" stroke-width="4.0" fill="none"/>
<circle cx="950.0" cy="600.0" r="9.0" stroke="#000000" stroke-width="4.0" fill="none" />
<circle cx="860.0" cy="580.0" r="2.0" stroke="#0000b2" stroke-width="4.0" fill="#0000b2" />
<circle cx="860.0" cy="620.0" r="2.0" stroke="#0000b2" stroke-width="4.0" fill="#0000b2" />
<circle cx="960.0" cy="600.0" r="2.0" stroke="#b20000" stroke-width="4.0" fill="#b20000" />
</g>
<g>
<path d="M 1230,550 L 1181,550 L 1181,490 L 1230,490 C 1240,490 1260,500 1259,520 C 1259,540 1240,550 1230,550 Z" stroke="#000000" stroke-width="4.0" fill="none"/>
<circle cx="1270.0" cy="520.0" r="9.0" stroke="#000000" stroke-width="4.0" fill="none" />
<circle cx="1180.0" cy="500.0" r="2.0" stroke="#0000b2" stroke-width="4.0" fill="#0000b2" />
<circle cx="1180.0" cy="520.0" r="2.0" stroke="#0000b2" stroke-width="4.0" fill="#0000b2" />
<circle cx="1180.0" cy="540.0" r="2.0" stroke="#0000b2" stroke-width="4.0" fill="#0000b2" />
<circle cx="1280.0" cy="520.0" r="2.0" stroke="#b20000" stroke-width="4.0" fill="#b20000" />
</g>
<g>
<path d="M 1141,508 L 1159,520 L 1141,532 Z" stroke="#000000" stroke-width="4.0" fill="none"/>
<circle cx="1170.0" cy="520.0" r="9.0" stroke="#000000" stroke-width="4.0" fill="none" />
<circle cx="1140.0" cy="520.0" r="2.0" stroke="#0000b2" stroke-width="4.0" fill="#0000b2" />
<circle cx="1180.0" cy="520.0" r="2.0" stroke="#b20000" stroke-width="4.0" fill="#b20000" />
</g>
<g>
<text text-anchor="start" x="-760.0" y="805.0" fill="#000000" style="font-size:60px">Q2 F5 using NAND gates</text>
</g>
<g>
<path d="M -611,905 L -581,905 L -581,935 L -611,935 Z" stroke="#000000" stroke-width="4.0" fill="none"/>
<circle cx="-596.0" cy="920.0" r="9.0" stroke="#000000" stroke-width="4.0" fill="none" />
<text text-anchor="end" x="-625.0" y="929.0" fill="#000000" style="font-size:24px"><tspan style="font-style:italic;">a</tspan></text>
<circle cx="-580.0" cy="920.0" r="2.0" stroke="#b20000" stroke-width="4.0" fill="#b20000" />
</g>
<g>
<path d="M -671,945 L -641,945 L -641,975 L -671,975 Z" stroke="#000000" stroke-width="4.0" fill="none"/>
<circle cx="-656.0" cy="960.0" r="9.0" stroke="#000000" stroke-width="4.0" fill="none" />
<text text-anchor="end" x="-685.0" y="969.0" fill="#000000" style="font-size:24px"><tspan style="font-style:italic;">b</tspan></text>
<circle cx="-640.0" cy="960.0" r="2.0" stroke="#b20000" stroke-width="4.0" fill="#b20000" />
</g>
<g>
<path d="M -499,948 L -481,960 L -499,972 Z" stroke="#000000" stroke-width="4.0" fill="none"/>
<circle cx="-470.0" cy="960.0" r="9.0" stroke="#000000" stroke-width="4.0" fill="none" />
<circle cx="-500.0" cy="960.0" r="2.0" stroke="#0000b2" stroke-width="4.0" fill="#0000b2" />
<circle cx="-460.0" cy="960.0" r="2.0" stroke="#b20000" stroke-width="4.0" fill="#b20000" />
</g>
<g>
<path d="M -671,1045 L -641,1045 L -641,1075 L -671,1075 Z" stroke="#000000" stroke-width="4.0" fill="none"/>
<circle cx="-656.0" cy="1060.0" r="9.0" stroke="#000000" stroke-width="4.0" fill="none" />
<text text-anchor="end" x="-685.0" y="1069.0" fill="#000000" style="font-size:24px"><tspan style="font-style:italic;">c</tspan></text>
<circle cx="-640.0" cy="1060.0" r="2.0" stroke="#b20000" stroke-width="4.0" fill="#b20000" />
</g>
<g>
<path d="M -331,965 L -301,965 L -301,995 L -331,995 Z" stroke="#000000" stroke-width="4.0" fill="none"/>
<circle cx="-316.0" cy="980.0" r="9.0" stroke="#000000" stroke-width="4.0" fill="none" />
<text text-anchor="end" x="-345.0" y="989.0" fill="#000000" style="font-size:24px"><tspan style="font-style:italic;">d</tspan></text>
<circle cx="-300.0" cy="980.0" r="2.0" stroke="#b20000" stroke-width="4.0" fill="#b20000" />
</g>
<g>
<circle cx="-84.0" cy="980.0" r="9.0" stroke="#000000" stroke-width="4.0" fill="none" />
<circle cx="-84.0" cy="980.0" r="15.0" stroke="#000000" stroke-width="4.0" fill="none" />
<text text-anchor="start" x="-55.0" y="989.0" fill="#000000" style="font-size:24px"><tspan style="font-style:italic;">x</tspan></text>
<circle cx="-100.0" cy="980.0" r="2.0" stroke="#0000b2" stroke-width="4.0" fill="#0000b2" />
</g>
<g>
<path d="M -390,970 L -439,970 L -439,910 L -390,910 C -380,910 -360,920 -361,940 C -361,960 -380,970 -390,970 Z" stroke="#000000" stroke-width="4.0" fill="none"/>
<circle cx="-350.0" cy="940.0" r="9.0" stroke="#000000" stroke-width="4.0" fill="none" />
<circle cx="-440.0" cy="920.0" r="2.0" stroke="#0000b2" stroke-width="4.0" fill="#0000b2" />
<circle cx="-440.0" cy="960.0" r="2.0" stroke="#0000b2" stroke-width="4.0" fill="#0000b2" />
<circle cx="-340.0" cy="940.0" r="2.0" stroke="#b20000" stroke-width="4.0" fill="#b20000" />
</g>
<g>
<path d="M -390,1070 L -439,1070 L -439,1010 L -390,1010 C -380,1010 -360,1020 -361,1040 C -361,1060 -380,1070 -390,1070 Z" stroke="#000000" stroke-width="4.0" fill="none"/>
<circle cx="-350.0" cy="1040.0" r="9.0" stroke="#000000" stroke-width="4.0" fill="none" />
<circle cx="-440.0" cy="1020.0" r="2.0" stroke="#0000b2" stroke-width="4.0" fill="#0000b2" />
<circle cx="-440.0" cy="1060.0" r="2.0" stroke="#0000b2" stroke-width="4.0" fill="#0000b2" />
<circle cx="-340.0" cy="1040.0" r="2.0" stroke="#b20000" stroke-width="4.0" fill="#b20000" />
</g>
<g>
<path d="M -279,968 L -261,980 L -279,992 Z" stroke="#000000" stroke-width="4.0" fill="none"/>
<circle cx="-250.0" cy="980.0" r="9.0" stroke="#000000" stroke-width="4.0" fill="none" />
<circle cx="-280.0" cy="980.0" r="2.0" stroke="#0000b2" stroke-width="4.0" fill="#0000b2" />
<circle cx="-240.0" cy="980.0" r="2.0" stroke="#b20000" stroke-width="4.0" fill="#b20000" />
</g>
<g>
<path d="M -170,1010 L -219,1010 L -219,950 L -170,950 C -160,950 -140,960 -141,980 C -141,1000 -160,1010 -170,1010 Z" stroke="#000000" stroke-width="4.0" fill="none"/>
<circle cx="-130.0" cy="980.0" r="9.0" stroke="#000000" stroke-width="4.0" fill="none" />
<circle cx="-220.0" cy="960.0" r="2.0" stroke="#0000b2" stroke-width="4.0" fill="#0000b2" />
<circle cx="-220.0" cy="980.0" r="2.0" stroke="#0000b2" stroke-width="4.0" fill="#0000b2" />
<circle cx="-220.0" cy="1000.0" r="2.0" stroke="#0000b2" stroke-width="4.0" fill="#0000b2" />
<circle cx="-120.0" cy="980.0" r="2.0" stroke="#b20000" stroke-width="4.0" fill="#b20000" />
</g>
<g>
<path d="M 489,1025 L 519,1025 L 519,1055 L 489,1055 Z" stroke="#000000" stroke-width="4.0" fill="none"/>
<circle cx="504.0" cy="1040.0" r="9.0" stroke="#000000" stroke-width="4.0" fill="none" />
<text text-anchor="end" x="475.0" y="1049.0" fill="#000000" style="font-size:24px"><tspan style="font-style:italic;">b</tspan></text>
<circle cx="520.0" cy="1040.0" r="2.0" stroke="#b20000" stroke-width="4.0" fill="#b20000" />
</g>
<g>
<path d="M 649,1065 L 679,1065 L 679,1095 L 649,1095 Z" stroke="#000000" stroke-width="4.0" fill="none"/>
<circle cx="664.0" cy="1080.0" r="9.0" stroke="#000000" stroke-width="4.0" fill="none" />
<text text-anchor="end" x="635.0" y="1089.0" fill="#000000" style="font-size:24px"><tspan style="font-style:italic;">c</tspan></text>
<circle cx="680.0" cy="1080.0" r="2.0" stroke="#b20000" stroke-width="4.0" fill="#b20000" />
</g>
<g>
<path d="M 969,1125 L 999,1125 L 999,1155 L 969,1155 Z" stroke="#000000" stroke-width="4.0" fill="none"/>
<circle cx="984.0" cy="1140.0" r="9.0" stroke="#000000" stroke-width="4.0" fill="none" />
<text text-anchor="end" x="955.0" y="1149.0" fill="#000000" style="font-size:24px"><tspan style="font-style:italic;">a</tspan></text>
<circle cx="1000.0" cy="1140.0" r="2.0" stroke="#b20000" stroke-width="4.0" fill="#b20000" />
</g>
<g>
<path d="M 1209,1125 L 1239,1125 L 1239,1155 L 1209,1155 Z" stroke="#000000" stroke-width="4.0" fill="none"/>
<circle cx="1224.0" cy="1140.0" r="9.0" stroke="#000000" stroke-width="4.0" fill="none" />
<text text-anchor="end" x="1195.0" y="1149.0" fill="#000000" style="font-size:24px"><tspan style="font-style:italic;">d</tspan></text>
<circle cx="1240.0" cy="1140.0" r="2.0" stroke="#b20000" stroke-width="4.0" fill="#b20000" />
</g>
<g>
<circle cx="1496.0" cy="1120.0" r="9.0" stroke="#000000" stroke-width="4.0" fill="none" />
<circle cx="1496.0" cy="1120.0" r="15.0" stroke="#000000" stroke-width="4.0" fill="none" />
<text text-anchor="start" x="1525.0" y="1129.0" fill="#000000" style="font-size:24px"><tspan style="font-style:italic;">y</tspan></text>
<circle cx="1480.0" cy="1120.0" r="2.0" stroke="#0000b2" stroke-width="4.0" fill="#0000b2" />
</g>
<g>
<path d="M 790,1090 L 741,1090 L 741,1030 L 790,1030 C 800,1030 820,1040 819,1060 C 819,1080 800,1090 790,1090 Z" stroke="#000000" stroke-width="4.0" fill="none"/>
<circle cx="830.0" cy="1060.0" r="9.0" stroke="#000000" stroke-width="4.0" fill="none" />
<circle cx="740.0" cy="1040.0" r="2.0" stroke="#0000b2" stroke-width="4.0" fill="#0000b2" />
<circle cx="740.0" cy="1080.0" r="2.0" stroke="#0000b2" stroke-width="4.0" fill="#0000b2" />
<circle cx="840.0" cy="1060.0" r="2.0" stroke="#b20000" stroke-width="4.0" fill="#b20000" />
</g>
<g>
<path d="M 1030,1110 L 981,1110 L 981,1050 L 1030,1050 C 1040,1050 1060,1060 1059,1080 C 1059,1100 1040,1110 1030,1110 Z" stroke="#000000" stroke-width="4.0" fill="none"/>
<circle cx="1070.0" cy="1080.0" r="9.0" stroke="#000000" stroke-width="4.0" fill="none" />
<circle cx="980.0" cy="1060.0" r="2.0" stroke="#0000b2" stroke-width="4.0" fill="#0000b2" />
<circle cx="980.0" cy="1100.0" r="2.0" stroke="#0000b2" stroke-width="4.0" fill="#0000b2" />
<circle cx="1080.0" cy="1080.0" r="2.0" stroke="#b20000" stroke-width="4.0" fill="#b20000" />
</g>
<g>
<path d="M 1150,1130 L 1101,1130 L 1101,1070 L 1150,1070 C 1160,1070 1180,1080 1179,1100 C 1179,1120 1160,1130 1150,1130 Z" stroke="#000000" stroke-width="4.0" fill="none"/>
<circle cx="1190.0" cy="1100.0" r="9.0" stroke="#000000" stroke-width="4.0" fill="none" />
<circle cx="1100.0" cy="1080.0" r="2.0" stroke="#0000b2" stroke-width="4.0" fill="#0000b2" />
<circle cx="1100.0" cy="1120.0" r="2.0" stroke="#0000b2" stroke-width="4.0" fill="#0000b2" />
<circle cx="1200.0" cy="1100.0" r="2.0" stroke="#b20000" stroke-width="4.0" fill="#b20000" />
</g>
<g>
<path d="M 1350,1150 L 1301,1150 L 1301,1090 L 1350,1090 C 1360,1090 1380,1100 1379,1120 C 1379,1140 1360,1150 1350,1150 Z" stroke="#000000" stroke-width="4.0" fill="none"/>
<circle cx="1390.0" cy="1120.0" r="9.0" stroke="#000000" stroke-width="4.0" fill="none" />
<circle cx="1300.0" cy="1100.0" r="2.0" stroke="#0000b2" stroke-width="4.0" fill="#0000b2" />
<circle cx="1300.0" cy="1140.0" r="2.0" stroke="#0000b2" stroke-width="4.0" fill="#0000b2" />
<circle cx="1400.0" cy="1120.0" r="2.0" stroke="#b20000" stroke-width="4.0" fill="#b20000" />
</g>
<g>
<path d="M 1261,1128 L 1279,1140 L 1261,1152 Z" stroke="#000000" stroke-width="4.0" fill="none"/>
<circle cx="1290.0" cy="1140.0" r="9.0" stroke="#000000" stroke-width="4.0" fill="none" />
<circle cx="1260.0" cy="1140.0" r="2.0" stroke="#0000b2" stroke-width="4.0" fill="#0000b2" />
<circle cx="1300.0" cy="1140.0" r="2.0" stroke="#b20000" stroke-width="4.0" fill="#b20000" />
</g>
<g>
<path d="M 2229,1065 L 2259,1065 L 2259,1095 L 2229,1095 Z" stroke="#000000" stroke-width="4.0" fill="none"/>
<circle cx="2244.0" cy="1080.0" r="9.0" stroke="#000000" stroke-width="4.0" fill="none" />
<text text-anchor="end" x="2215.0" y="1089.0" fill="#000000" style="font-size:24px"><tspan style="font-style:italic;">d</tspan></text>
<circle cx="2260.0" cy="1080.0" r="2.0" stroke="#b20000" stroke-width="4.0" fill="#b20000" />
</g>
<g>
<path d="M 1829,985 L 1859,985 L 1859,1015 L 1829,1015 Z" stroke="#000000" stroke-width="4.0" fill="none"/>
<circle cx="1844.0" cy="1000.0" r="9.0" stroke="#000000" stroke-width="4.0" fill="none" />
<text text-anchor="end" x="1815.0" y="1009.0" fill="#000000" style="font-size:24px"><tspan style="font-style:italic;">b</tspan></text>
<circle cx="1860.0" cy="1000.0" r="2.0" stroke="#b20000" stroke-width="4.0" fill="#b20000" />
</g>
<g>
<path d="M 1809,1065 L 1839,1065 L 1839,1095 L 1809,1095 Z" stroke="#000000" stroke-width="4.0" fill="none"/>
<circle cx="1824.0" cy="1080.0" r="9.0" stroke="#000000" stroke-width="4.0" fill="none" />
<text text-anchor="end" x="1795.0" y="1089.0" fill="#000000" style="font-size:24px"><tspan style="font-style:italic;">a</tspan></text>
<circle cx="1840.0" cy="1080.0" r="2.0" stroke="#b20000" stroke-width="4.0" fill="#b20000" />
</g>
<g>
<path d="M 1829,1125 L 1859,1125 L 1859,1155 L 1829,1155 Z" stroke="#000000" stroke-width="4.0" fill="none"/>
<circle cx="1844.0" cy="1140.0" r="9.0" stroke="#000000" stroke-width="4.0" fill="none" />
<text text-anchor="end" x="1815.0" y="1149.0" fill="#000000" style="font-size:24px"><tspan style="font-style:italic;">c</tspan></text>
<circle cx="1860.0" cy="1140.0" r="2.0" stroke="#b20000" stroke-width="4.0" fill="#b20000" />
</g>
<g>
<path d="M 1901,988 L 1919,1000 L 1901,1012 Z" stroke="#000000" stroke-width="4.0" fill="none"/>
<circle cx="1930.0" cy="1000.0" r="9.0" stroke="#000000" stroke-width="4.0" fill="none" />
<circle cx="1900.0" cy="1000.0" r="2.0" stroke="#0000b2" stroke-width="4.0" fill="#0000b2" />
<circle cx="1940.0" cy="1000.0" r="2.0" stroke="#b20000" stroke-width="4.0" fill="#b20000" />
</g>
<g>
<circle cx="2496.0" cy="1060.0" r="9.0" stroke="#000000" stroke-width="4.0" fill="none" />
<circle cx="2496.0" cy="1060.0" r="15.0" stroke="#000000" stroke-width="4.0" fill="none" />
<text text-anchor="start" x="2525.0" y="1069.0" fill="#000000" style="font-size:24px"><tspan style="font-style:italic;">j</tspan></text>
<circle cx="2480.0" cy="1060.0" r="2.0" stroke="#0000b2" stroke-width="4.0" fill="#0000b2" />
</g>
<g>
<path d="M 1970,1150 L 1921,1150 L 1921,1090 L 1970,1090 C 1980,1090 2000,1100 1999,1120 C 1999,1140 1980,1150 1970,1150 Z" stroke="#000000" stroke-width="4.0" fill="none"/>
<circle cx="2010.0" cy="1120.0" r="9.0" stroke="#000000" stroke-width="4.0" fill="none" />
<circle cx="1920.0" cy="1100.0" r="2.0" stroke="#0000b2" stroke-width="4.0" fill="#0000b2" />
<circle cx="1920.0" cy="1140.0" r="2.0" stroke="#0000b2" stroke-width="4.0" fill="#0000b2" />
<circle cx="2020.0" cy="1120.0" r="2.0" stroke="#b20000" stroke-width="4.0" fill="#b20000" />
</g>
<g>
<path d="M 1990,1050 L 1941,1050 L 1941,990 L 1990,990 C 2000,990 2020,1000 2019,1020 C 2019,1040 2000,1050 1990,1050 Z" stroke="#000000" stroke-width="4.0" fill="none"/>
<circle cx="2030.0" cy="1020.0" r="9.0" stroke="#000000" stroke-width="4.0" fill="none" />
<circle cx="1940.0" cy="1000.0" r="2.0" stroke="#0000b2" stroke-width="4.0" fill="#0000b2" />
<circle cx="1940.0" cy="1040.0" r="2.0" stroke="#0000b2" stroke-width="4.0" fill="#0000b2" />
<circle cx="2040.0" cy="1020.0" r="2.0" stroke="#b20000" stroke-width="4.0" fill="#b20000" />
</g>
<g>
<path d="M 2170,1070 L 2121,1070 L 2121,1010 L 2170,1010 C 2180,1010 2200,1020 2199,1040 C 2199,1060 2180,1070 2170,1070 Z" stroke="#000000" stroke-width="4.0" fill="none"/>
<circle cx="2210.0" cy="1040.0" r="9.0" stroke="#000000" stroke-width="4.0" fill="none" />
<circle cx="2120.0" cy="1020.0" r="2.0" stroke="#0000b2" stroke-width="4.0" fill="#0000b2" />
<circle cx="2120.0" cy="1060.0" r="2.0" stroke="#0000b2" stroke-width="4.0" fill="#0000b2" />
<circle cx="2220.0" cy="1040.0" r="2.0" stroke="#b20000" stroke-width="4.0" fill="#b20000" />
</g>
<g>
<path d="M 2261,1028 L 2279,1040 L 2261,1052 Z" stroke="#000000" stroke-width="4.0" fill="none"/>
<circle cx="2290.0" cy="1040.0" r="9.0" stroke="#000000" stroke-width="4.0" fill="none" />
<circle cx="2260.0" cy="1040.0" r="2.0" stroke="#0000b2" stroke-width="4.0" fill="#0000b2" />
<circle cx="2300.0" cy="1040.0" r="2.0" stroke="#b20000" stroke-width="4.0" fill="#b20000" />
</g>
<g>
<path d="M 2281,1068 L 2299,1080 L 2281,1092 Z" stroke="#000000" stroke-width="4.0" fill="none"/>
<circle cx="2310.0" cy="1080.0" r="9.0" stroke="#000000" stroke-width="4.0" fill="none" />
<circle cx="2280.0" cy="1080.0" r="2.0" stroke="#0000b2" stroke-width="4.0" fill="#0000b2" />
<circle cx="2320.0" cy="1080.0" r="2.0" stroke="#b20000" stroke-width="4.0" fill="#b20000" />
</g>
<g>
<path d="M 2390,1090 L 2341,1090 L 2341,1030 L 2390,1030 C 2400,1030 2420,1040 2419,1060 C 2419,1080 2400,1090 2390,1090 Z" stroke="#000000" stroke-width="4.0" fill="none"/>
<circle cx="2430.0" cy="1060.0" r="9.0" stroke="#000000" stroke-width="4.0" fill="none" />
<circle cx="2340.0" cy="1040.0" r="2.0" stroke="#0000b2" stroke-width="4.0" fill="#0000b2" />
<circle cx="2340.0" cy="1080.0" r="2.0" stroke="#0000b2" stroke-width="4.0" fill="#0000b2" />
<circle cx="2440.0" cy="1060.0" r="2.0" stroke="#b20000" stroke-width="4.0" fill="#b20000" />
</g>
<g>
<text text-anchor="start" x="-660.0" y="876.0" fill="#000000" style="font-size:48px">ab'+abc+d</text>
</g>
</g>
</svg>