<?xml version="1.0" encoding="UTF-8" standalone="no"?>
<!-- Created with Digital by H.Neemann -->
<!-- created: Sat Oct 15 11:25:42 IST 2022 -->

<svg
   xmlns:svg="http://www.w3.org/2000/svg"
   xmlns="http://www.w3.org/2000/svg"
   width="182.7mm"
   height="530.85mm"
   viewBox="-979 -1402 1218 3539">
<g stroke-linecap="square">
<path d="M -340,-820 L -340,-900 L -80,-900" stroke="#0000b2" stroke-width="4.0" fill="none"/>
<path d="M -700,820 L -700,900 L -620,900" stroke="#0000b2" stroke-width="4.0" fill="none"/>
<path d="M -300,1800 L -240,1800 L -240,1780 L -200,1780" stroke="#0000b2" stroke-width="4.0" fill="none"/>
<path d="M -60,1800 L -40,1800" stroke="#0000b2" stroke-width="4.0" fill="none"/>
<path d="M -520,-140 L -500,-140" stroke="#0000b2" stroke-width="4.0" fill="none"/>
<path d="M -600,-140 L -560,-140" stroke="#0000b2" stroke-width="4.0" fill="none"/>
<path d="M -460,1420 L -440,1420" stroke="#0000b2" stroke-width="4.0" fill="none"/>
<path d="M -400,1420 L -380,1420" stroke="#0000b2" stroke-width="4.0" fill="none"/>
<path d="M -280,1420 L -260,1420" stroke="#0000b2" stroke-width="4.0" fill="none"/>
<path d="M -760,2060 L -720,2060 L -720,2020 L -660,2020" stroke="#0000b2" stroke-width="4.0" fill="none"/>
<path d="M -340,2060 L -320,2060" stroke="#0000b2" stroke-width="4.0" fill="none"/>
<path d="M -280,2060 L -260,2060" stroke="#0000b2" stroke-width="4.0" fill="none"/>
<path d="M -780,-1040 L -680,-1040" stroke="#0000b2" stroke-width="4.0" fill="none"/>
<path d="M -620,-920 L -600,-920 L -600,-1020 L -440,-1020" stroke="#0000b2" stroke-width="4.0" fill="none"/>
<path d="M 20,-920 L 40,-920" stroke="#0000b2" stroke-width="4.0" fill="none"/>
<path d="M -700,460 L -700,540 L -620,540" stroke="#0000b2" stroke-width="4.0" fill="none"/>
<path d="M -520,-800 L -440,-800" stroke="#0000b2" stroke-width="4.0" fill="none"/>
<path d="M -880,-940 L -880,-800 L -560,-800" stroke="#0000b2" stroke-width="4.0" fill="none"/>
<path d="M -900,800 L -820,800 L -820,720 L -620,720" stroke="#0000b2" stroke-width="4.0" fill="none"/>
<path d="M -200,800 L -100,800" stroke="#0000b2" stroke-width="4.0" fill="none"/>
<path d="M -420,800 L -340,800" stroke="#0000b2" stroke-width="4.0" fill="none"/>
<path d="M -720,2060 L -720,2080 L -680,2080" stroke="#0000b2" stroke-width="4.0" fill="none"/>
<path d="M -580,-1060 L -440,-1060" stroke="#0000b2" stroke-width="4.0" fill="none"/>
<path d="M -780,1700 L -760,1700 L -560,1700" stroke="#0000b2" stroke-width="4.0" fill="none"/>
<path d="M -520,380 L -520,420 L -360,420" stroke="#0000b2" stroke-width="4.0" fill="none"/>
<path d="M -420,-300 L 40,-300" stroke="#0000b2" stroke-width="4.0" fill="none"/>
<path d="M 140,-300 L 180,-300" stroke="#0000b2" stroke-width="4.0" fill="none"/>
<path d="M -340,-1040 L -340,-940 L -80,-940" stroke="#0000b2" stroke-width="4.0" fill="none"/>
<path d="M -900,-940 L -880,-940 L -880,-1080 L -740,-1080" stroke="#0000b2" stroke-width="4.0" fill="none"/>
<path d="M -720,1360 L -720,1460 L -600,1460" stroke="#0000b2" stroke-width="4.0" fill="none"/>
<path d="M -760,820 L -700,820 L -700,760 L -660,760" stroke="#0000b2" stroke-width="4.0" fill="none"/>
<path d="M -900,-440 L -780,-440 L -780,-480 L -480,-480" stroke="#0000b2" stroke-width="4.0" fill="none"/>
<path d="M -700,-1080 L -680,-1080" stroke="#0000b2" stroke-width="4.0" fill="none"/>
<path d="M -460,1720 L -320,1720" stroke="#0000b2" stroke-width="4.0" fill="none"/>
<path d="M -900,440 L -820,440 L -820,360 L -620,360" stroke="#0000b2" stroke-width="4.0" fill="none"/>
<path d="M -120,440 L -100,440" stroke="#0000b2" stroke-width="4.0" fill="none"/>
<path d="M -260,440 L -160,440" stroke="#0000b2" stroke-width="4.0" fill="none"/>
<path d="M -740,1980 L -700,1980" stroke="#0000b2" stroke-width="4.0" fill="none"/>
<path d="M -380,-460 L -380,-320 L 40,-320" stroke="#0000b2" stroke-width="4.0" fill="none"/>
<path d="M -780,-440 L -780,-320 L -560,-320" stroke="#0000b2" stroke-width="4.0" fill="none"/>
<path d="M -920,-200 L -740,-200 L -740,-100 L -500,-100" stroke="#0000b2" stroke-width="4.0" fill="none"/>
<path d="M -520,-840 L -440,-840" stroke="#0000b2" stroke-width="4.0" fill="none"/>
<path d="M -600,-920 L -600,-840 L -560,-840" stroke="#0000b2" stroke-width="4.0" fill="none"/>
<path d="M -500,1480 L -400,1480 L -400,1440 L -380,1440" stroke="#0000b2" stroke-width="4.0" fill="none"/>
<path d="M -740,2120 L -680,2120" stroke="#0000b2" stroke-width="4.0" fill="none"/>
<path d="M -620,1740 L -560,1740" stroke="#0000b2" stroke-width="4.0" fill="none"/>
<path d="M -220,1740 L -200,1740" stroke="#0000b2" stroke-width="4.0" fill="none"/>
<path d="M -760,460 L -700,460 L -700,400 L -660,400" stroke="#0000b2" stroke-width="4.0" fill="none"/>
<path d="M -520,520 L -520,460 L -360,460" stroke="#0000b2" stroke-width="4.0" fill="none"/>
<path d="M 0,460 L 20,460" stroke="#0000b2" stroke-width="4.0" fill="none"/>
<path d="M -560,2000 L -480,2000" stroke="#0000b2" stroke-width="4.0" fill="none"/>
<path d="M -740,1360 L -720,1360 L -600,1360" stroke="#0000b2" stroke-width="4.0" fill="none"/>
<path d="M -820,800 L -820,860 L -660,860" stroke="#0000b2" stroke-width="4.0" fill="none"/>
<path d="M -800,1500 L -600,1500" stroke="#0000b2" stroke-width="4.0" fill="none"/>
<path d="M -760,1700 L -760,1760 L -320,1760" stroke="#0000b2" stroke-width="4.0" fill="none"/>
<path d="M -100,1760 L 0,1760" stroke="#0000b2" stroke-width="4.0" fill="none"/>
<path d="M -120,480 L -100,480" stroke="#0000b2" stroke-width="4.0" fill="none"/>
<path d="M -280,500 L -280,480 L -160,480" stroke="#0000b2" stroke-width="4.0" fill="none"/>
<path d="M -380,2020 L -340,2020" stroke="#0000b2" stroke-width="4.0" fill="none"/>
<path d="M -300,2020 L -260,2020" stroke="#0000b2" stroke-width="4.0" fill="none"/>
<path d="M -520,740 L -360,740 L -360,780 L -300,780" stroke="#0000b2" stroke-width="4.0" fill="none"/>
<path d="M -500,1380 L -400,1380 L -400,1400 L -380,1400" stroke="#0000b2" stroke-width="4.0" fill="none"/>
<path d="M -520,880 L -360,880 L -360,820 L -300,820" stroke="#0000b2" stroke-width="4.0" fill="none"/>
<path d="M 100,1780 L 180,1780" stroke="#0000b2" stroke-width="4.0" fill="none"/>
<path d="M -820,440 L -820,500 L -660,500" stroke="#0000b2" stroke-width="4.0" fill="none"/>
<path d="M -400,-120 L -380,-120 L -380,-280 L 40,-280" stroke="#0000b2" stroke-width="4.0" fill="none"/>
<path d="M -580,2100 L -580,2040 L -480,2040" stroke="#0000b2" stroke-width="4.0" fill="none"/>
<path d="M -160,2040 L -120,2040" stroke="#0000b2" stroke-width="4.0" fill="none"/>
<path d="M -800,1400 L -660,1400" stroke="#0000b2" stroke-width="4.0" fill="none"/>
<path d="M -620,1400 L -600,1400" stroke="#0000b2" stroke-width="4.0" fill="none"/>
<path d="M -560,-280 L -740,-280 L -740,-440 L -480,-440" stroke="#0000b2" stroke-width="4.0" fill="none"/>
<path d="M -740,-280 L -740,-200" stroke="#0000b2" stroke-width="4.0" fill="none"/>
<g>
<circle cx="-720.0" cy="2060.0" r="4.0" stroke="#0000b2" stroke-width="4.0" fill="#0000b2" />
<circle cx="-740.0" cy="-280.0" r="4.0" stroke="#0000b2" stroke-width="4.0" fill="#0000b2" />
<circle cx="-600.0" cy="-920.0" r="4.0" stroke="#0000b2" stroke-width="4.0" fill="#0000b2" />
<circle cx="-820.0" cy="800.0" r="4.0" stroke="#0000b2" stroke-width="4.0" fill="#0000b2" />
<circle cx="-760.0" cy="1700.0" r="4.0" stroke="#0000b2" stroke-width="4.0" fill="#0000b2" />
<circle cx="-880.0" cy="-940.0" r="4.0" stroke="#0000b2" stroke-width="4.0" fill="#0000b2" />
<circle cx="-700.0" cy="820.0" r="4.0" stroke="#0000b2" stroke-width="4.0" fill="#0000b2" />
<circle cx="-780.0" cy="-440.0" r="4.0" stroke="#0000b2" stroke-width="4.0" fill="#0000b2" />
<circle cx="-820.0" cy="440.0" r="4.0" stroke="#0000b2" stroke-width="4.0" fill="#0000b2" />
<circle cx="-740.0" cy="-200.0" r="4.0" stroke="#0000b2" stroke-width="4.0" fill="#0000b2" />
<circle cx="-700.0" cy="460.0" r="4.0" stroke="#0000b2" stroke-width="4.0" fill="#0000b2" />
<circle cx="-720.0" cy="1360.0" r="4.0" stroke="#0000b2" stroke-width="4.0" fill="#0000b2" />
</g>
<g>
<path d="M -559,-332 L -541,-320 L -559,-308 Z" stroke="#000000" stroke-width="4.0" fill="none"/>
<circle cx="-530.0" cy="-320.0" r="9.0" stroke="#000000" stroke-width="4.0" fill="none" />
<circle cx="-560.0" cy="-320.0" r="2.0" stroke="#0000b2" stroke-width="4.0" fill="#0000b2" />
<circle cx="-520.0" cy="-320.0" r="2.0" stroke="#b20000" stroke-width="4.0" fill="#b20000" />
</g>
<g>
<path d="M -559,-292 L -541,-280 L -559,-268 Z" stroke="#000000" stroke-width="4.0" fill="none"/>
<circle cx="-530.0" cy="-280.0" r="9.0" stroke="#000000" stroke-width="4.0" fill="none" />
<circle cx="-560.0" cy="-280.0" r="2.0" stroke="#0000b2" stroke-width="4.0" fill="#0000b2" />
<circle cx="-520.0" cy="-280.0" r="2.0" stroke="#b20000" stroke-width="4.0" fill="#b20000" />
</g>
<g>
<path d="M -559,-152 L -541,-140 L -559,-128 Z" stroke="#000000" stroke-width="4.0" fill="none"/>
<circle cx="-530.0" cy="-140.0" r="9.0" stroke="#000000" stroke-width="4.0" fill="none" />
<circle cx="-560.0" cy="-140.0" r="2.0" stroke="#0000b2" stroke-width="4.0" fill="#0000b2" />
<circle cx="-520.0" cy="-140.0" r="2.0" stroke="#b20000" stroke-width="4.0" fill="#b20000" />
</g>
<g>
<path d="M -931,-455 L -901,-455 L -901,-425 L -931,-425 Z" stroke="#000000" stroke-width="4.0" fill="none"/>
<circle cx="-916.0" cy="-440.0" r="9.0" stroke="#000000" stroke-width="4.0" fill="none" />
<text text-anchor="end" x="-945.0" y="-431.0" fill="#000000" style="font-size:24px"><tspan style="font-style:italic;">z</tspan></text>
<circle cx="-900.0" cy="-440.0" r="2.0" stroke="#b20000" stroke-width="4.0" fill="#b20000" />
</g>
<g>
<path d="M -631,-155 L -601,-155 L -601,-125 L -631,-125 Z" stroke="#000000" stroke-width="4.0" fill="none"/>
<circle cx="-616.0" cy="-140.0" r="9.0" stroke="#000000" stroke-width="4.0" fill="none" />
<text text-anchor="end" x="-645.0" y="-131.0" fill="#000000" style="font-size:24px"><tspan style="font-style:italic;">w</tspan></text>
<circle cx="-600.0" cy="-140.0" r="2.0" stroke="#b20000" stroke-width="4.0" fill="#b20000" />
</g>
<g>
<path d="M -951,-215 L -921,-215 L -921,-185 L -951,-185 Z" stroke="#000000" stroke-width="4.0" fill="none"/>
<circle cx="-936.0" cy="-200.0" r="9.0" stroke="#000000" stroke-width="4.0" fill="none" />
<text text-anchor="end" x="-965.0" y="-191.0" fill="#000000" style="font-size:24px"><tspan style="font-style:italic;">x</tspan></text>
<circle cx="-920.0" cy="-200.0" r="2.0" stroke="#b20000" stroke-width="4.0" fill="#b20000" />
</g>
<g>
<circle cx="196.0" cy="-300.0" r="9.0" stroke="#000000" stroke-width="4.0" fill="none" />
<circle cx="196.0" cy="-300.0" r="15.0" stroke="#000000" stroke-width="4.0" fill="none" />
<text text-anchor="start" x="225.0" y="-291.0" fill="#000000" style="font-size:24px"><tspan style="font-style:italic;">y</tspan></text>
<circle cx="180.0" cy="-300.0" r="2.0" stroke="#0000b2" stroke-width="4.0" fill="#0000b2" />
</g>
<g>
<path d="M -430,-430 L -479,-430 L -479,-490 L -430,-490 C -420,-490 -400,-480 -401,-460 C -401,-440 -420,-430 -430,-430 Z" stroke="#000000" stroke-width="4.0" fill="none"/>
<circle cx="-390.0" cy="-460.0" r="9.0" stroke="#000000" stroke-width="4.0" fill="none" />
<circle cx="-480.0" cy="-480.0" r="2.0" stroke="#0000b2" stroke-width="4.0" fill="#0000b2" />
<circle cx="-480.0" cy="-440.0" r="2.0" stroke="#0000b2" stroke-width="4.0" fill="#0000b2" />
<circle cx="-380.0" cy="-460.0" r="2.0" stroke="#b20000" stroke-width="4.0" fill="#b20000" />
</g>
<g>
<path d="M -470,-270 L -519,-270 L -519,-330 L -470,-330 C -460,-330 -440,-320 -441,-300 C -441,-280 -460,-270 -470,-270 Z" stroke="#000000" stroke-width="4.0" fill="none"/>
<circle cx="-430.0" cy="-300.0" r="9.0" stroke="#000000" stroke-width="4.0" fill="none" />
<circle cx="-520.0" cy="-320.0" r="2.0" stroke="#0000b2" stroke-width="4.0" fill="#0000b2" />
<circle cx="-520.0" cy="-280.0" r="2.0" stroke="#0000b2" stroke-width="4.0" fill="#0000b2" />
<circle cx="-420.0" cy="-300.0" r="2.0" stroke="#b20000" stroke-width="4.0" fill="#b20000" />
</g>
<g>
<path d="M -450,-90 L -499,-90 L -499,-150 L -450,-150 C -440,-150 -420,-140 -421,-120 C -421,-100 -440,-90 -450,-90 Z" stroke="#000000" stroke-width="4.0" fill="none"/>
<circle cx="-410.0" cy="-120.0" r="9.0" stroke="#000000" stroke-width="4.0" fill="none" />
<circle cx="-500.0" cy="-140.0" r="2.0" stroke="#0000b2" stroke-width="4.0" fill="#0000b2" />
<circle cx="-500.0" cy="-100.0" r="2.0" stroke="#0000b2" stroke-width="4.0" fill="#0000b2" />
<circle cx="-400.0" cy="-120.0" r="2.0" stroke="#b20000" stroke-width="4.0" fill="#b20000" />
</g>
<g>
<path d="M 90,-270 L 41,-270 L 41,-330 L 90,-330 C 100,-330 120,-320 119,-300 C 119,-280 100,-270 90,-270 Z" stroke="#000000" stroke-width="4.0" fill="none"/>
<circle cx="130.0" cy="-300.0" r="9.0" stroke="#000000" stroke-width="4.0" fill="none" />
<circle cx="40.0" cy="-320.0" r="2.0" stroke="#0000b2" stroke-width="4.0" fill="#0000b2" />
<circle cx="40.0" cy="-300.0" r="2.0" stroke="#0000b2" stroke-width="4.0" fill="#0000b2" />
<circle cx="40.0" cy="-280.0" r="2.0" stroke="#0000b2" stroke-width="4.0" fill="#0000b2" />
<circle cx="140.0" cy="-300.0" r="2.0" stroke="#b20000" stroke-width="4.0" fill="#b20000" />
</g>
<g>
<path d="M -559,-852 L -541,-840 L -559,-828 Z" stroke="#000000" stroke-width="4.0" fill="none"/>
<circle cx="-530.0" cy="-840.0" r="9.0" stroke="#000000" stroke-width="4.0" fill="none" />
<circle cx="-560.0" cy="-840.0" r="2.0" stroke="#0000b2" stroke-width="4.0" fill="#0000b2" />
<circle cx="-520.0" cy="-840.0" r="2.0" stroke="#b20000" stroke-width="4.0" fill="#b20000" />
</g>
<g>
<path d="M -559,-812 L -541,-800 L -559,-788 Z" stroke="#000000" stroke-width="4.0" fill="none"/>
<circle cx="-530.0" cy="-800.0" r="9.0" stroke="#000000" stroke-width="4.0" fill="none" />
<circle cx="-560.0" cy="-800.0" r="2.0" stroke="#0000b2" stroke-width="4.0" fill="#0000b2" />
<circle cx="-520.0" cy="-800.0" r="2.0" stroke="#b20000" stroke-width="4.0" fill="#b20000" />
</g>
<g>
<circle cx="56.0" cy="-920.0" r="9.0" stroke="#000000" stroke-width="4.0" fill="none" />
<circle cx="56.0" cy="-920.0" r="15.0" stroke="#000000" stroke-width="4.0" fill="none" />
<text text-anchor="start" x="85.0" y="-911.0" fill="#000000" style="font-size:24px"><tspan style="font-style:italic;">f</tspan></text>
<circle cx="40.0" cy="-920.0" r="2.0" stroke="#0000b2" stroke-width="4.0" fill="#0000b2" />
</g>
<g>
<path d="M -651,-935 L -621,-935 L -621,-905 L -651,-905 Z" stroke="#000000" stroke-width="4.0" fill="none"/>
<circle cx="-636.0" cy="-920.0" r="9.0" stroke="#000000" stroke-width="4.0" fill="none" />
<text text-anchor="end" x="-665.0" y="-911.0" fill="#000000" style="font-size:24px"><tspan style="font-style:italic;">x</tspan></text>
<circle cx="-620.0" cy="-920.0" r="2.0" stroke="#b20000" stroke-width="4.0" fill="#b20000" />
</g>
<g>
<path d="M -811,-1055 L -781,-1055 L -781,-1025 L -811,-1025 Z" stroke="#000000" stroke-width="4.0" fill="none"/>
<circle cx="-796.0" cy="-1040.0" r="9.0" stroke="#000000" stroke-width="4.0" fill="none" />
<text text-anchor="end" x="-825.0" y="-1031.0" fill="#000000" style="font-size:24px"><tspan style="font-style:italic;">w</tspan></text>
<circle cx="-780.0" cy="-1040.0" r="2.0" stroke="#b20000" stroke-width="4.0" fill="#b20000" />
</g>
<g>
<path d="M -931,-955 L -901,-955 L -901,-925 L -931,-925 Z" stroke="#000000" stroke-width="4.0" fill="none"/>
<circle cx="-916.0" cy="-940.0" r="9.0" stroke="#000000" stroke-width="4.0" fill="none" />
<text text-anchor="end" x="-945.0" y="-931.0" fill="#000000" style="font-size:24px"><tspan style="font-style:italic;">z</tspan></text>
<circle cx="-900.0" cy="-940.0" r="2.0" stroke="#b20000" stroke-width="4.0" fill="#b20000" />
</g>
<g>
<path d="M -390,-1010 L -439,-1010 L -439,-1070 L -390,-1070 C -380,-1070 -360,-1060 -361,-1040 C -361,-1020 -380,-1010 -390,-1010 Z" stroke="#000000" stroke-width="4.0" fill="none"/>
<circle cx="-350.0" cy="-1040.0" r="9.0" stroke="#000000" stroke-width="4.0" fill="none" />
<circle cx="-440.0" cy="-1060.0" r="2.0" stroke="#0000b2" stroke-width="4.0" fill="#0000b2" />
<circle cx="-440.0" cy="-1020.0" r="2.0" stroke="#0000b2" stroke-width="4.0" fill="#0000b2" />
<circle cx="-340.0" cy="-1040.0" r="2.0" stroke="#b20000" stroke-width="4.0" fill="#b20000" />
</g>
<g>
<path d="M -390,-790 L -439,-790 L -439,-850 L -390,-850 C -380,-850 -360,-840 -361,-820 C -361,-800 -380,-790 -390,-790 Z" stroke="#000000" stroke-width="4.0" fill="none"/>
<circle cx="-350.0" cy="-820.0" r="9.0" stroke="#000000" stroke-width="4.0" fill="none" />
<circle cx="-440.0" cy="-840.0" r="2.0" stroke="#0000b2" stroke-width="4.0" fill="#0000b2" />
<circle cx="-440.0" cy="-800.0" r="2.0" stroke="#0000b2" stroke-width="4.0" fill="#0000b2" />
<circle cx="-340.0" cy="-820.0" r="2.0" stroke="#b20000" stroke-width="4.0" fill="#b20000" />
</g>
<g>
<path d="M -30,-890 L -79,-890 L -79,-950 L -30,-950 C -20,-950 0,-940 -1,-920 C -1,-900 -20,-890 -30,-890 Z" stroke="#000000" stroke-width="4.0" fill="none"/>
<circle cx="10.0" cy="-920.0" r="9.0" stroke="#000000" stroke-width="4.0" fill="none" />
<circle cx="-80.0" cy="-940.0" r="2.0" stroke="#0000b2" stroke-width="4.0" fill="#0000b2" />
<circle cx="-80.0" cy="-900.0" r="2.0" stroke="#0000b2" stroke-width="4.0" fill="#0000b2" />
<circle cx="20.0" cy="-920.0" r="2.0" stroke="#b20000" stroke-width="4.0" fill="#b20000" />
</g>
<g>
<path d="M -739,-1092 L -721,-1080 L -739,-1068 Z" stroke="#000000" stroke-width="4.0" fill="none"/>
<circle cx="-710.0" cy="-1080.0" r="9.0" stroke="#000000" stroke-width="4.0" fill="none" />
<circle cx="-740.0" cy="-1080.0" r="2.0" stroke="#0000b2" stroke-width="4.0" fill="#0000b2" />
<circle cx="-700.0" cy="-1080.0" r="2.0" stroke="#b20000" stroke-width="4.0" fill="#b20000" />
</g>
<g>
<path d="M -630,-1030 L -679,-1030 L -679,-1090 L -630,-1090 C -620,-1090 -600,-1080 -601,-1060 C -601,-1040 -620,-1030 -630,-1030 Z" stroke="#000000" stroke-width="4.0" fill="none"/>
<circle cx="-590.0" cy="-1060.0" r="9.0" stroke="#000000" stroke-width="4.0" fill="none" />
<circle cx="-680.0" cy="-1080.0" r="2.0" stroke="#0000b2" stroke-width="4.0" fill="#0000b2" />
<circle cx="-680.0" cy="-1040.0" r="2.0" stroke="#0000b2" stroke-width="4.0" fill="#0000b2" />
<circle cx="-580.0" cy="-1060.0" r="2.0" stroke="#b20000" stroke-width="4.0" fill="#b20000" />
</g>
<g>
<text text-anchor="start" x="-720.0" y="-615.0" fill="#000000" style="font-size:60px">xz+x'z'+w'x</text>
<text text-anchor="start" x="-720.0" y="-540.0" fill="#000000" style="font-size:60px">9 inputs</text>
</g>
<g>
<text text-anchor="start" x="-860.0" y="-1215.0" fill="#000000" style="font-size:60px">x(z+w')+x'z'</text>
<text text-anchor="start" x="-860.0" y="-1140.0" fill="#000000" style="font-size:60px">8 inputs</text>
</g>
<g>
<text text-anchor="start" x="-920.0" y="-1355.0" fill="#000000" style="font-size:60px">Q2 F1(SOP) using NAND gates</text>
</g>
<g>
<text text-anchor="start" x="-940.0" y="185.0" fill="#000000" style="font-size:60px">Q2 F3 using NAND gates</text>
<text text-anchor="start" x="-940.0" y="260.0" fill="#000000" style="font-size:60px">a+b'c+bc'(SoP)</text>
</g>
<g>
<path d="M -311,485 L -281,485 L -281,515 L -311,515 Z" stroke="#000000" stroke-width="4.0" fill="none"/>
<circle cx="-296.0" cy="500.0" r="9.0" stroke="#000000" stroke-width="4.0" fill="none" />
<text text-anchor="end" x="-325.0" y="509.0" fill="#000000" style="font-size:24px"><tspan style="font-style:italic;">a</tspan></text>
<circle cx="-280.0" cy="500.0" r="2.0" stroke="#b20000" stroke-width="4.0" fill="#b20000" />
</g>
<g>
<path d="M -659,488 L -641,500 L -659,512 Z" stroke="#000000" stroke-width="4.0" fill="none"/>
<circle cx="-630.0" cy="500.0" r="9.0" stroke="#000000" stroke-width="4.0" fill="none" />
<circle cx="-660.0" cy="500.0" r="2.0" stroke="#0000b2" stroke-width="4.0" fill="#0000b2" />
<circle cx="-620.0" cy="500.0" r="2.0" stroke="#b20000" stroke-width="4.0" fill="#b20000" />
</g>
<g>
<path d="M -931,425 L -901,425 L -901,455 L -931,455 Z" stroke="#000000" stroke-width="4.0" fill="none"/>
<circle cx="-916.0" cy="440.0" r="9.0" stroke="#000000" stroke-width="4.0" fill="none" />
<text text-anchor="end" x="-945.0" y="449.0" fill="#000000" style="font-size:24px"><tspan style="font-style:italic;">b</tspan></text>
<circle cx="-900.0" cy="440.0" r="2.0" stroke="#b20000" stroke-width="4.0" fill="#b20000" />
</g>
<g>
<path d="M -659,388 L -641,400 L -659,412 Z" stroke="#000000" stroke-width="4.0" fill="none"/>
<circle cx="-630.0" cy="400.0" r="9.0" stroke="#000000" stroke-width="4.0" fill="none" />
<circle cx="-660.0" cy="400.0" r="2.0" stroke="#0000b2" stroke-width="4.0" fill="#0000b2" />
<circle cx="-620.0" cy="400.0" r="2.0" stroke="#b20000" stroke-width="4.0" fill="#b20000" />
</g>
<g>
<path d="M -791,445 L -761,445 L -761,475 L -791,475 Z" stroke="#000000" stroke-width="4.0" fill="none"/>
<circle cx="-776.0" cy="460.0" r="9.0" stroke="#000000" stroke-width="4.0" fill="none" />
<text text-anchor="end" x="-805.0" y="469.0" fill="#000000" style="font-size:24px"><tspan style="font-style:italic;">c</tspan></text>
<circle cx="-760.0" cy="460.0" r="2.0" stroke="#b20000" stroke-width="4.0" fill="#b20000" />
</g>
<g>
<circle cx="36.0" cy="460.0" r="9.0" stroke="#000000" stroke-width="4.0" fill="none" />
<circle cx="36.0" cy="460.0" r="15.0" stroke="#000000" stroke-width="4.0" fill="none" />
<text text-anchor="start" x="65.0" y="469.0" fill="#000000" style="font-size:24px"><tspan style="font-style:italic;">f</tspan></text>
<circle cx="20.0" cy="460.0" r="2.0" stroke="#0000b2" stroke-width="4.0" fill="#0000b2" />
</g>
<g>
<path d="M -570,410 L -619,410 L -619,350 L -570,350 C -560,350 -540,360 -541,380 C -541,400 -560,410 -570,410 Z" stroke="#000000" stroke-width="4.0" fill="none"/>
<circle cx="-530.0" cy="380.0" r="9.0" stroke="#000000" stroke-width="4.0" fill="none" />
<circle cx="-620.0" cy="360.0" r="2.0" stroke="#0000b2" stroke-width="4.0" fill="#0000b2" />
<circle cx="-620.0" cy="400.0" r="2.0" stroke="#0000b2" stroke-width="4.0" fill="#0000b2" />
<circle cx="-520.0" cy="380.0" r="2.0" stroke="#b20000" stroke-width="4.0" fill="#b20000" />
</g>
<g>
<path d="M -570,550 L -619,550 L -619,490 L -570,490 C -560,490 -540,500 -541,520 C -541,540 -560,550 -570,550 Z" stroke="#000000" stroke-width="4.0" fill="none"/>
<circle cx="-530.0" cy="520.0" r="9.0" stroke="#000000" stroke-width="4.0" fill="none" />
<circle cx="-620.0" cy="500.0" r="2.0" stroke="#0000b2" stroke-width="4.0" fill="#0000b2" />
<circle cx="-620.0" cy="540.0" r="2.0" stroke="#0000b2" stroke-width="4.0" fill="#0000b2" />
<circle cx="-520.0" cy="520.0" r="2.0" stroke="#b20000" stroke-width="4.0" fill="#b20000" />
</g>
<g>
<path d="M -310,470 L -359,470 L -359,410 L -310,410 C -300,410 -280,420 -281,440 C -281,460 -300,470 -310,470 Z" stroke="#000000" stroke-width="4.0" fill="none"/>
<circle cx="-270.0" cy="440.0" r="9.0" stroke="#000000" stroke-width="4.0" fill="none" />
<circle cx="-360.0" cy="420.0" r="2.0" stroke="#0000b2" stroke-width="4.0" fill="#0000b2" />
<circle cx="-360.0" cy="460.0" r="2.0" stroke="#0000b2" stroke-width="4.0" fill="#0000b2" />
<circle cx="-260.0" cy="440.0" r="2.0" stroke="#b20000" stroke-width="4.0" fill="#b20000" />
</g>
<g>
<path d="M -159,428 L -141,440 L -159,452 Z" stroke="#000000" stroke-width="4.0" fill="none"/>
<circle cx="-130.0" cy="440.0" r="9.0" stroke="#000000" stroke-width="4.0" fill="none" />
<circle cx="-160.0" cy="440.0" r="2.0" stroke="#0000b2" stroke-width="4.0" fill="#0000b2" />
<circle cx="-120.0" cy="440.0" r="2.0" stroke="#b20000" stroke-width="4.0" fill="#b20000" />
</g>
<g>
<path d="M -159,468 L -141,480 L -159,492 Z" stroke="#000000" stroke-width="4.0" fill="none"/>
<circle cx="-130.0" cy="480.0" r="9.0" stroke="#000000" stroke-width="4.0" fill="none" />
<circle cx="-160.0" cy="480.0" r="2.0" stroke="#0000b2" stroke-width="4.0" fill="#0000b2" />
<circle cx="-120.0" cy="480.0" r="2.0" stroke="#b20000" stroke-width="4.0" fill="#b20000" />
</g>
<g>
<path d="M -50,490 L -99,490 L -99,430 L -50,430 C -40,430 -20,440 -21,460 C -21,480 -40,490 -50,490 Z" stroke="#000000" stroke-width="4.0" fill="none"/>
<circle cx="-10.0" cy="460.0" r="9.0" stroke="#000000" stroke-width="4.0" fill="none" />
<circle cx="-100.0" cy="440.0" r="2.0" stroke="#0000b2" stroke-width="4.0" fill="#0000b2" />
<circle cx="-100.0" cy="480.0" r="2.0" stroke="#0000b2" stroke-width="4.0" fill="#0000b2" />
<circle cx="0.0" cy="460.0" r="2.0" stroke="#b20000" stroke-width="4.0" fill="#b20000" />
</g>
<g>
<path d="M -451,785 L -421,785 L -421,815 L -451,815 Z" stroke="#000000" stroke-width="4.0" fill="none"/>
<circle cx="-436.0" cy="800.0" r="9.0" stroke="#000000" stroke-width="4.0" fill="none" />
<text text-anchor="end" x="-465.0" y="809.0" fill="#000000" style="font-size:24px"><tspan style="font-style:italic;">a</tspan></text>
<circle cx="-420.0" cy="800.0" r="2.0" stroke="#b20000" stroke-width="4.0" fill="#b20000" />
</g>
<g>
<path d="M -659,848 L -641,860 L -659,872 Z" stroke="#000000" stroke-width="4.0" fill="none"/>
<circle cx="-630.0" cy="860.0" r="9.0" stroke="#000000" stroke-width="4.0" fill="none" />
<circle cx="-660.0" cy="860.0" r="2.0" stroke="#0000b2" stroke-width="4.0" fill="#0000b2" />
<circle cx="-620.0" cy="860.0" r="2.0" stroke="#b20000" stroke-width="4.0" fill="#b20000" />
</g>
<g>
<path d="M -931,785 L -901,785 L -901,815 L -931,815 Z" stroke="#000000" stroke-width="4.0" fill="none"/>
<circle cx="-916.0" cy="800.0" r="9.0" stroke="#000000" stroke-width="4.0" fill="none" />
<text text-anchor="end" x="-945.0" y="809.0" fill="#000000" style="font-size:24px"><tspan style="font-style:italic;">b</tspan></text>
<circle cx="-900.0" cy="800.0" r="2.0" stroke="#b20000" stroke-width="4.0" fill="#b20000" />
</g>
<g>
<path d="M -659,748 L -641,760 L -659,772 Z" stroke="#000000" stroke-width="4.0" fill="none"/>
<circle cx="-630.0" cy="760.0" r="9.0" stroke="#000000" stroke-width="4.0" fill="none" />
<circle cx="-660.0" cy="760.0" r="2.0" stroke="#0000b2" stroke-width="4.0" fill="#0000b2" />
<circle cx="-620.0" cy="760.0" r="2.0" stroke="#b20000" stroke-width="4.0" fill="#b20000" />
</g>
<g>
<path d="M -791,805 L -761,805 L -761,835 L -791,835 Z" stroke="#000000" stroke-width="4.0" fill="none"/>
<circle cx="-776.0" cy="820.0" r="9.0" stroke="#000000" stroke-width="4.0" fill="none" />
<text text-anchor="end" x="-805.0" y="829.0" fill="#000000" style="font-size:24px"><tspan style="font-style:italic;">c</tspan></text>
<circle cx="-760.0" cy="820.0" r="2.0" stroke="#b20000" stroke-width="4.0" fill="#b20000" />
</g>
<g>
<circle cx="-84.0" cy="800.0" r="9.0" stroke="#000000" stroke-width="4.0" fill="none" />
<circle cx="-84.0" cy="800.0" r="15.0" stroke="#000000" stroke-width="4.0" fill="none" />
<text text-anchor="start" x="-55.0" y="809.0" fill="#000000" style="font-size:24px"><tspan style="font-style:italic;">f</tspan></text>
<circle cx="-100.0" cy="800.0" r="2.0" stroke="#0000b2" stroke-width="4.0" fill="#0000b2" />
</g>
<g>
<path d="M -570,770 L -619,770 L -619,710 L -570,710 C -560,710 -540,720 -541,740 C -541,760 -560,770 -570,770 Z" stroke="#000000" stroke-width="4.0" fill="none"/>
<circle cx="-530.0" cy="740.0" r="9.0" stroke="#000000" stroke-width="4.0" fill="none" />
<circle cx="-620.0" cy="720.0" r="2.0" stroke="#0000b2" stroke-width="4.0" fill="#0000b2" />
<circle cx="-620.0" cy="760.0" r="2.0" stroke="#0000b2" stroke-width="4.0" fill="#0000b2" />
<circle cx="-520.0" cy="740.0" r="2.0" stroke="#b20000" stroke-width="4.0" fill="#b20000" />
</g>
<g>
<path d="M -570,910 L -619,910 L -619,850 L -570,850 C -560,850 -540,860 -541,880 C -541,900 -560,910 -570,910 Z" stroke="#000000" stroke-width="4.0" fill="none"/>
<circle cx="-530.0" cy="880.0" r="9.0" stroke="#000000" stroke-width="4.0" fill="none" />
<circle cx="-620.0" cy="860.0" r="2.0" stroke="#0000b2" stroke-width="4.0" fill="#0000b2" />
<circle cx="-620.0" cy="900.0" r="2.0" stroke="#0000b2" stroke-width="4.0" fill="#0000b2" />
<circle cx="-520.0" cy="880.0" r="2.0" stroke="#b20000" stroke-width="4.0" fill="#b20000" />
</g>
<g>
<path d="M -250,830 L -299,830 L -299,770 L -250,770 C -240,770 -220,780 -221,800 C -221,820 -240,830 -250,830 Z" stroke="#000000" stroke-width="4.0" fill="none"/>
<circle cx="-210.0" cy="800.0" r="9.0" stroke="#000000" stroke-width="4.0" fill="none" />
<circle cx="-300.0" cy="780.0" r="2.0" stroke="#0000b2" stroke-width="4.0" fill="#0000b2" />
<circle cx="-300.0" cy="800.0" r="2.0" stroke="#0000b2" stroke-width="4.0" fill="#0000b2" />
<circle cx="-300.0" cy="820.0" r="2.0" stroke="#0000b2" stroke-width="4.0" fill="#0000b2" />
<circle cx="-200.0" cy="800.0" r="2.0" stroke="#b20000" stroke-width="4.0" fill="#b20000" />
</g>
<g>
<path d="M -339,788 L -321,800 L -339,812 Z" stroke="#000000" stroke-width="4.0" fill="none"/>
<circle cx="-310.0" cy="800.0" r="9.0" stroke="#000000" stroke-width="4.0" fill="none" />
<circle cx="-340.0" cy="800.0" r="2.0" stroke="#0000b2" stroke-width="4.0" fill="#0000b2" />
<circle cx="-300.0" cy="800.0" r="2.0" stroke="#b20000" stroke-width="4.0" fill="#b20000" />
</g>
<g>
<text text-anchor="start" x="-880.0" y="1145.0" fill="#000000" style="font-size:60px">Q2 F5 using NAND gates</text>
</g>
<g>
<path d="M -771,1345 L -741,1345 L -741,1375 L -771,1375 Z" stroke="#000000" stroke-width="4.0" fill="none"/>
<circle cx="-756.0" cy="1360.0" r="9.0" stroke="#000000" stroke-width="4.0" fill="none" />
<text text-anchor="end" x="-785.0" y="1369.0" fill="#000000" style="font-size:24px"><tspan style="font-style:italic;">a</tspan></text>
<circle cx="-740.0" cy="1360.0" r="2.0" stroke="#b20000" stroke-width="4.0" fill="#b20000" />
</g>
<g>
<path d="M -831,1385 L -801,1385 L -801,1415 L -831,1415 Z" stroke="#000000" stroke-width="4.0" fill="none"/>
<circle cx="-816.0" cy="1400.0" r="9.0" stroke="#000000" stroke-width="4.0" fill="none" />
<text text-anchor="end" x="-845.0" y="1409.0" fill="#000000" style="font-size:24px"><tspan style="font-style:italic;">b</tspan></text>
<circle cx="-800.0" cy="1400.0" r="2.0" stroke="#b20000" stroke-width="4.0" fill="#b20000" />
</g>
<g>
<path d="M -659,1388 L -641,1400 L -659,1412 Z" stroke="#000000" stroke-width="4.0" fill="none"/>
<circle cx="-630.0" cy="1400.0" r="9.0" stroke="#000000" stroke-width="4.0" fill="none" />
<circle cx="-660.0" cy="1400.0" r="2.0" stroke="#0000b2" stroke-width="4.0" fill="#0000b2" />
<circle cx="-620.0" cy="1400.0" r="2.0" stroke="#b20000" stroke-width="4.0" fill="#b20000" />
</g>
<g>
<path d="M -831,1485 L -801,1485 L -801,1515 L -831,1515 Z" stroke="#000000" stroke-width="4.0" fill="none"/>
<circle cx="-816.0" cy="1500.0" r="9.0" stroke="#000000" stroke-width="4.0" fill="none" />
<text text-anchor="end" x="-845.0" y="1509.0" fill="#000000" style="font-size:24px"><tspan style="font-style:italic;">c</tspan></text>
<circle cx="-800.0" cy="1500.0" r="2.0" stroke="#b20000" stroke-width="4.0" fill="#b20000" />
</g>
<g>
<path d="M -491,1405 L -461,1405 L -461,1435 L -491,1435 Z" stroke="#000000" stroke-width="4.0" fill="none"/>
<circle cx="-476.0" cy="1420.0" r="9.0" stroke="#000000" stroke-width="4.0" fill="none" />
<text text-anchor="end" x="-505.0" y="1429.0" fill="#000000" style="font-size:24px"><tspan style="font-style:italic;">d</tspan></text>
<circle cx="-460.0" cy="1420.0" r="2.0" stroke="#b20000" stroke-width="4.0" fill="#b20000" />
</g>
<g>
<circle cx="-244.0" cy="1420.0" r="9.0" stroke="#000000" stroke-width="4.0" fill="none" />
<circle cx="-244.0" cy="1420.0" r="15.0" stroke="#000000" stroke-width="4.0" fill="none" />
<text text-anchor="start" x="-215.0" y="1429.0" fill="#000000" style="font-size:24px"><tspan style="font-style:italic;">f</tspan></text>
<circle cx="-260.0" cy="1420.0" r="2.0" stroke="#0000b2" stroke-width="4.0" fill="#0000b2" />
</g>
<g>
<path d="M -550,1410 L -599,1410 L -599,1350 L -550,1350 C -540,1350 -520,1360 -521,1380 C -521,1400 -540,1410 -550,1410 Z" stroke="#000000" stroke-width="4.0" fill="none"/>
<circle cx="-510.0" cy="1380.0" r="9.0" stroke="#000000" stroke-width="4.0" fill="none" />
<circle cx="-600.0" cy="1360.0" r="2.0" stroke="#0000b2" stroke-width="4.0" fill="#0000b2" />
<circle cx="-600.0" cy="1400.0" r="2.0" stroke="#0000b2" stroke-width="4.0" fill="#0000b2" />
<circle cx="-500.0" cy="1380.0" r="2.0" stroke="#b20000" stroke-width="4.0" fill="#b20000" />
</g>
<g>
<path d="M -550,1510 L -599,1510 L -599,1450 L -550,1450 C -540,1450 -520,1460 -521,1480 C -521,1500 -540,1510 -550,1510 Z" stroke="#000000" stroke-width="4.0" fill="none"/>
<circle cx="-510.0" cy="1480.0" r="9.0" stroke="#000000" stroke-width="4.0" fill="none" />
<circle cx="-600.0" cy="1460.0" r="2.0" stroke="#0000b2" stroke-width="4.0" fill="#0000b2" />
<circle cx="-600.0" cy="1500.0" r="2.0" stroke="#0000b2" stroke-width="4.0" fill="#0000b2" />
<circle cx="-500.0" cy="1480.0" r="2.0" stroke="#b20000" stroke-width="4.0" fill="#b20000" />
</g>
<g>
<path d="M -439,1408 L -421,1420 L -439,1432 Z" stroke="#000000" stroke-width="4.0" fill="none"/>
<circle cx="-410.0" cy="1420.0" r="9.0" stroke="#000000" stroke-width="4.0" fill="none" />
<circle cx="-440.0" cy="1420.0" r="2.0" stroke="#0000b2" stroke-width="4.0" fill="#0000b2" />
<circle cx="-400.0" cy="1420.0" r="2.0" stroke="#b20000" stroke-width="4.0" fill="#b20000" />
</g>
<g>
<path d="M -330,1450 L -379,1450 L -379,1390 L -330,1390 C -320,1390 -300,1400 -301,1420 C -301,1440 -320,1450 -330,1450 Z" stroke="#000000" stroke-width="4.0" fill="none"/>
<circle cx="-290.0" cy="1420.0" r="9.0" stroke="#000000" stroke-width="4.0" fill="none" />
<circle cx="-380.0" cy="1400.0" r="2.0" stroke="#0000b2" stroke-width="4.0" fill="#0000b2" />
<circle cx="-380.0" cy="1420.0" r="2.0" stroke="#0000b2" stroke-width="4.0" fill="#0000b2" />
<circle cx="-380.0" cy="1440.0" r="2.0" stroke="#0000b2" stroke-width="4.0" fill="#0000b2" />
<circle cx="-280.0" cy="1420.0" r="2.0" stroke="#b20000" stroke-width="4.0" fill="#b20000" />
</g>
<g>
<path d="M -811,1685 L -781,1685 L -781,1715 L -811,1715 Z" stroke="#000000" stroke-width="4.0" fill="none"/>
<circle cx="-796.0" cy="1700.0" r="9.0" stroke="#000000" stroke-width="4.0" fill="none" />
<text text-anchor="end" x="-825.0" y="1709.0" fill="#000000" style="font-size:24px"><tspan style="font-style:italic;">b</tspan></text>
<circle cx="-780.0" cy="1700.0" r="2.0" stroke="#b20000" stroke-width="4.0" fill="#b20000" />
</g>
<g>
<path d="M -651,1725 L -621,1725 L -621,1755 L -651,1755 Z" stroke="#000000" stroke-width="4.0" fill="none"/>
<circle cx="-636.0" cy="1740.0" r="9.0" stroke="#000000" stroke-width="4.0" fill="none" />
<text text-anchor="end" x="-665.0" y="1749.0" fill="#000000" style="font-size:24px"><tspan style="font-style:italic;">c</tspan></text>
<circle cx="-620.0" cy="1740.0" r="2.0" stroke="#b20000" stroke-width="4.0" fill="#b20000" />
</g>
<g>
<path d="M -331,1785 L -301,1785 L -301,1815 L -331,1815 Z" stroke="#000000" stroke-width="4.0" fill="none"/>
<circle cx="-316.0" cy="1800.0" r="9.0" stroke="#000000" stroke-width="4.0" fill="none" />
<text text-anchor="end" x="-345.0" y="1809.0" fill="#000000" style="font-size:24px"><tspan style="font-style:italic;">a</tspan></text>
<circle cx="-300.0" cy="1800.0" r="2.0" stroke="#b20000" stroke-width="4.0" fill="#b20000" />
</g>
<g>
<path d="M -91,1785 L -61,1785 L -61,1815 L -91,1815 Z" stroke="#000000" stroke-width="4.0" fill="none"/>
<circle cx="-76.0" cy="1800.0" r="9.0" stroke="#000000" stroke-width="4.0" fill="none" />
<text text-anchor="end" x="-105.0" y="1809.0" fill="#000000" style="font-size:24px"><tspan style="font-style:italic;">d</tspan></text>
<circle cx="-60.0" cy="1800.0" r="2.0" stroke="#b20000" stroke-width="4.0" fill="#b20000" />
</g>
<g>
<circle cx="196.0" cy="1780.0" r="9.0" stroke="#000000" stroke-width="4.0" fill="none" />
<circle cx="196.0" cy="1780.0" r="15.0" stroke="#000000" stroke-width="4.0" fill="none" />
<text text-anchor="start" x="225.0" y="1789.0" fill="#000000" style="font-size:24px"><tspan style="font-style:italic;">f</tspan></text>
<circle cx="180.0" cy="1780.0" r="2.0" stroke="#0000b2" stroke-width="4.0" fill="#0000b2" />
</g>
<g>
<path d="M -510,1750 L -559,1750 L -559,1690 L -510,1690 C -500,1690 -480,1700 -481,1720 C -481,1740 -500,1750 -510,1750 Z" stroke="#000000" stroke-width="4.0" fill="none"/>
<circle cx="-470.0" cy="1720.0" r="9.0" stroke="#000000" stroke-width="4.0" fill="none" />
<circle cx="-560.0" cy="1700.0" r="2.0" stroke="#0000b2" stroke-width="4.0" fill="#0000b2" />
<circle cx="-560.0" cy="1740.0" r="2.0" stroke="#0000b2" stroke-width="4.0" fill="#0000b2" />
<circle cx="-460.0" cy="1720.0" r="2.0" stroke="#b20000" stroke-width="4.0" fill="#b20000" />
</g>
<g>
<path d="M -270,1770 L -319,1770 L -319,1710 L -270,1710 C -260,1710 -240,1720 -241,1740 C -241,1760 -260,1770 -270,1770 Z" stroke="#000000" stroke-width="4.0" fill="none"/>
<circle cx="-230.0" cy="1740.0" r="9.0" stroke="#000000" stroke-width="4.0" fill="none" />
<circle cx="-320.0" cy="1720.0" r="2.0" stroke="#0000b2" stroke-width="4.0" fill="#0000b2" />
<circle cx="-320.0" cy="1760.0" r="2.0" stroke="#0000b2" stroke-width="4.0" fill="#0000b2" />
<circle cx="-220.0" cy="1740.0" r="2.0" stroke="#b20000" stroke-width="4.0" fill="#b20000" />
</g>
<g>
<path d="M -150,1790 L -199,1790 L -199,1730 L -150,1730 C -140,1730 -120,1740 -121,1760 C -121,1780 -140,1790 -150,1790 Z" stroke="#000000" stroke-width="4.0" fill="none"/>
<circle cx="-110.0" cy="1760.0" r="9.0" stroke="#000000" stroke-width="4.0" fill="none" />
<circle cx="-200.0" cy="1740.0" r="2.0" stroke="#0000b2" stroke-width="4.0" fill="#0000b2" />
<circle cx="-200.0" cy="1780.0" r="2.0" stroke="#0000b2" stroke-width="4.0" fill="#0000b2" />
<circle cx="-100.0" cy="1760.0" r="2.0" stroke="#b20000" stroke-width="4.0" fill="#b20000" />
</g>
<g>
<path d="M 50,1810 L 1,1810 L 1,1750 L 50,1750 C 60,1750 80,1760 79,1780 C 79,1800 60,1810 50,1810 Z" stroke="#000000" stroke-width="4.0" fill="none"/>
<circle cx="90.0" cy="1780.0" r="9.0" stroke="#000000" stroke-width="4.0" fill="none" />
<circle cx="0.0" cy="1760.0" r="2.0" stroke="#0000b2" stroke-width="4.0" fill="#0000b2" />
<circle cx="0.0" cy="1800.0" r="2.0" stroke="#0000b2" stroke-width="4.0" fill="#0000b2" />
<circle cx="100.0" cy="1780.0" r="2.0" stroke="#b20000" stroke-width="4.0" fill="#b20000" />
</g>
<g>
<path d="M -39,1788 L -21,1800 L -39,1812 Z" stroke="#000000" stroke-width="4.0" fill="none"/>
<circle cx="-10.0" cy="1800.0" r="9.0" stroke="#000000" stroke-width="4.0" fill="none" />
<circle cx="-40.0" cy="1800.0" r="2.0" stroke="#0000b2" stroke-width="4.0" fill="#0000b2" />
<circle cx="0.0" cy="1800.0" r="2.0" stroke="#b20000" stroke-width="4.0" fill="#b20000" />
</g>
<g>
<path d="M -371,2045 L -341,2045 L -341,2075 L -371,2075 Z" stroke="#000000" stroke-width="4.0" fill="none"/>
<circle cx="-356.0" cy="2060.0" r="9.0" stroke="#000000" stroke-width="4.0" fill="none" />
<text text-anchor="end" x="-385.0" y="2069.0" fill="#000000" style="font-size:24px"><tspan style="font-style:italic;">d</tspan></text>
<circle cx="-340.0" cy="2060.0" r="2.0" stroke="#b20000" stroke-width="4.0" fill="#b20000" />
</g>
<g>
<path d="M -771,1965 L -741,1965 L -741,1995 L -771,1995 Z" stroke="#000000" stroke-width="4.0" fill="none"/>
<circle cx="-756.0" cy="1980.0" r="9.0" stroke="#000000" stroke-width="4.0" fill="none" />
<text text-anchor="end" x="-785.0" y="1989.0" fill="#000000" style="font-size:24px"><tspan style="font-style:italic;">b</tspan></text>
<circle cx="-740.0" cy="1980.0" r="2.0" stroke="#b20000" stroke-width="4.0" fill="#b20000" />
</g>
<g>
<path d="M -791,2045 L -761,2045 L -761,2075 L -791,2075 Z" stroke="#000000" stroke-width="4.0" fill="none"/>
<circle cx="-776.0" cy="2060.0" r="9.0" stroke="#000000" stroke-width="4.0" fill="none" />
<text text-anchor="end" x="-805.0" y="2069.0" fill="#000000" style="font-size:24px"><tspan style="font-style:italic;">a</tspan></text>
<circle cx="-760.0" cy="2060.0" r="2.0" stroke="#b20000" stroke-width="4.0" fill="#b20000" />
</g>
<g>
<path d="M -771,2105 L -741,2105 L -741,2135 L -771,2135 Z" stroke="#000000" stroke-width="4.0" fill="none"/>
<circle cx="-756.0" cy="2120.0" r="9.0" stroke="#000000" stroke-width="4.0" fill="none" />
<text text-anchor="end" x="-785.0" y="2129.0" fill="#000000" style="font-size:24px"><tspan style="font-style:italic;">c</tspan></text>
<circle cx="-740.0" cy="2120.0" r="2.0" stroke="#b20000" stroke-width="4.0" fill="#b20000" />
</g>
<g>
<path d="M -699,1968 L -681,1980 L -699,1992 Z" stroke="#000000" stroke-width="4.0" fill="none"/>
<circle cx="-670.0" cy="1980.0" r="9.0" stroke="#000000" stroke-width="4.0" fill="none" />
<circle cx="-700.0" cy="1980.0" r="2.0" stroke="#0000b2" stroke-width="4.0" fill="#0000b2" />
<circle cx="-660.0" cy="1980.0" r="2.0" stroke="#b20000" stroke-width="4.0" fill="#b20000" />
</g>
<g>
<circle cx="-104.0" cy="2040.0" r="9.0" stroke="#000000" stroke-width="4.0" fill="none" />
<circle cx="-104.0" cy="2040.0" r="15.0" stroke="#000000" stroke-width="4.0" fill="none" />
<text text-anchor="start" x="-75.0" y="2049.0" fill="#000000" style="font-size:24px"><tspan style="font-style:italic;">f</tspan></text>
<circle cx="-120.0" cy="2040.0" r="2.0" stroke="#0000b2" stroke-width="4.0" fill="#0000b2" />
</g>
<g>
<path d="M -630,2130 L -679,2130 L -679,2070 L -630,2070 C -620,2070 -600,2080 -601,2100 C -601,2120 -620,2130 -630,2130 Z" stroke="#000000" stroke-width="4.0" fill="none"/>
<circle cx="-590.0" cy="2100.0" r="9.0" stroke="#000000" stroke-width="4.0" fill="none" />
<circle cx="-680.0" cy="2080.0" r="2.0" stroke="#0000b2" stroke-width="4.0" fill="#0000b2" />
<circle cx="-680.0" cy="2120.0" r="2.0" stroke="#0000b2" stroke-width="4.0" fill="#0000b2" />
<circle cx="-580.0" cy="2100.0" r="2.0" stroke="#b20000" stroke-width="4.0" fill="#b20000" />
</g>
<g>
<path d="M -610,2030 L -659,2030 L -659,1970 L -610,1970 C -600,1970 -580,1980 -581,2000 C -581,2020 -600,2030 -610,2030 Z" stroke="#000000" stroke-width="4.0" fill="none"/>
<circle cx="-570.0" cy="2000.0" r="9.0" stroke="#000000" stroke-width="4.0" fill="none" />
<circle cx="-660.0" cy="1980.0" r="2.0" stroke="#0000b2" stroke-width="4.0" fill="#0000b2" />
<circle cx="-660.0" cy="2020.0" r="2.0" stroke="#0000b2" stroke-width="4.0" fill="#0000b2" />
<circle cx="-560.0" cy="2000.0" r="2.0" stroke="#b20000" stroke-width="4.0" fill="#b20000" />
</g>
<g>
<path d="M -430,2050 L -479,2050 L -479,1990 L -430,1990 C -420,1990 -400,2000 -401,2020 C -401,2040 -420,2050 -430,2050 Z" stroke="#000000" stroke-width="4.0" fill="none"/>
<circle cx="-390.0" cy="2020.0" r="9.0" stroke="#000000" stroke-width="4.0" fill="none" />
<circle cx="-480.0" cy="2000.0" r="2.0" stroke="#0000b2" stroke-width="4.0" fill="#0000b2" />
<circle cx="-480.0" cy="2040.0" r="2.0" stroke="#0000b2" stroke-width="4.0" fill="#0000b2" />
<circle cx="-380.0" cy="2020.0" r="2.0" stroke="#b20000" stroke-width="4.0" fill="#b20000" />
</g>
<g>
<path d="M -339,2008 L -321,2020 L -339,2032 Z" stroke="#000000" stroke-width="4.0" fill="none"/>
<circle cx="-310.0" cy="2020.0" r="9.0" stroke="#000000" stroke-width="4.0" fill="none" />
<circle cx="-340.0" cy="2020.0" r="2.0" stroke="#0000b2" stroke-width="4.0" fill="#0000b2" />
<circle cx="-300.0" cy="2020.0" r="2.0" stroke="#b20000" stroke-width="4.0" fill="#b20000" />
</g>
<g>
<path d="M -319,2048 L -301,2060 L -319,2072 Z" stroke="#000000" stroke-width="4.0" fill="none"/>
<circle cx="-290.0" cy="2060.0" r="9.0" stroke="#000000" stroke-width="4.0" fill="none" />
<circle cx="-320.0" cy="2060.0" r="2.0" stroke="#0000b2" stroke-width="4.0" fill="#0000b2" />
<circle cx="-280.0" cy="2060.0" r="2.0" stroke="#b20000" stroke-width="4.0" fill="#b20000" />
</g>
<g>
<path d="M -210,2070 L -259,2070 L -259,2010 L -210,2010 C -200,2010 -180,2020 -181,2040 C -181,2060 -200,2070 -210,2070 Z" stroke="#000000" stroke-width="4.0" fill="none"/>
<circle cx="-170.0" cy="2040.0" r="9.0" stroke="#000000" stroke-width="4.0" fill="none" />
<circle cx="-260.0" cy="2020.0" r="2.0" stroke="#0000b2" stroke-width="4.0" fill="#0000b2" />
<circle cx="-260.0" cy="2060.0" r="2.0" stroke="#0000b2" stroke-width="4.0" fill="#0000b2" />
<circle cx="-160.0" cy="2040.0" r="2.0" stroke="#b20000" stroke-width="4.0" fill="#b20000" />
</g>
<g>
<text text-anchor="start" x="-860.0" y="1236.0" fill="#000000" style="font-size:48px">ab'+abc+d</text>
</g>
</g>
</svg>